<mxfile host="app.diagrams.net" modified="2023-06-23T20:45:32.326Z" agent="Mozilla/5.0 (Windows NT 10.0; Win64; x64) AppleWebKit/537.36 (KHTML, like Gecko) Chrome/114.0.0.0 Safari/537.36" etag="HGpTFlKIYogtv9yc0czw" version="21.4.0">
  <diagram id="C5RBs43oDa-KdzZeNtuy" name="Page-1">
    <mxGraphModel dx="1909" dy="1967" grid="1" gridSize="10" guides="1" tooltips="1" connect="1" arrows="1" fold="1" page="1" pageScale="1" pageWidth="1169" pageHeight="827" math="0" shadow="0">
      <root>
        <mxCell id="WIyWlLk6GJQsqaUBKTNV-0" />
        <mxCell id="WIyWlLk6GJQsqaUBKTNV-1" parent="WIyWlLk6GJQsqaUBKTNV-0" />
        <mxCell id="FMd9MbEWiYony1QI66Ri-48" value="Cargo" style="swimlane;fontStyle=0;childLayout=stackLayout;horizontal=1;startSize=26;horizontalStack=0;resizeParent=1;resizeParentMax=0;resizeLast=0;collapsible=1;marginBottom=0;whiteSpace=wrap;html=1;fontFamily=Helvetica;fontSize=12;shadow=0;strokeColor=#6C8EBF;fillColor=#a6c6f2;rounded=1;glass=0;" parent="WIyWlLk6GJQsqaUBKTNV-1" vertex="1">
          <mxGeometry x="790" y="324" width="140" height="224" as="geometry" />
        </mxCell>
        <mxCell id="FMd9MbEWiYony1QI66Ri-49" value="- titulo: str" style="text;align=left;verticalAlign=top;spacingLeft=4;spacingRight=4;overflow=hidden;rotatable=0;points=[[0,0.5],[1,0.5]];portConstraint=eastwest;whiteSpace=wrap;html=1;fontSize=12;fontFamily=Helvetica;strokeColor=none;fillColor=#e8f0fd;rounded=1;" parent="FMd9MbEWiYony1QI66Ri-48" vertex="1">
          <mxGeometry y="26" width="140" height="26" as="geometry" />
        </mxCell>
        <mxCell id="FMd9MbEWiYony1QI66Ri-50" value="- salario: float" style="text;align=left;verticalAlign=top;spacingLeft=4;spacingRight=4;overflow=hidden;rotatable=0;points=[[0,0.5],[1,0.5]];portConstraint=eastwest;whiteSpace=wrap;html=1;fontSize=12;fontFamily=Helvetica;strokeColor=none;fillColor=#e8f0fd;rounded=1;" parent="FMd9MbEWiYony1QI66Ri-48" vertex="1">
          <mxGeometry y="52" width="140" height="26" as="geometry" />
        </mxCell>
        <mxCell id="dxM63xS1KSjtT52cdp6n-24" value="" style="line;html=1;strokeWidth=1;align=left;verticalAlign=middle;spacingTop=-1;spacingLeft=3;spacingRight=3;rotatable=0;labelPosition=right;points=[];portConstraint=eastwest;dashed=1;strokeColor=none;fillColor=#F6EDFC;rounded=1;" parent="FMd9MbEWiYony1QI66Ri-48" vertex="1">
          <mxGeometry y="78" width="140" height="8" as="geometry" />
        </mxCell>
        <mxCell id="dxM63xS1KSjtT52cdp6n-25" value="- __init__(titulo, salario)" style="text;align=left;verticalAlign=top;spacingLeft=4;spacingRight=4;overflow=hidden;rotatable=0;points=[[0,0.5],[1,0.5]];portConstraint=eastwest;strokeColor=none;fillColor=#dae8fc;rounded=1;" parent="FMd9MbEWiYony1QI66Ri-48" vertex="1">
          <mxGeometry y="86" width="140" height="34" as="geometry" />
        </mxCell>
        <mxCell id="dxM63xS1KSjtT52cdp6n-26" value="- titulo()" style="text;align=left;verticalAlign=top;spacingLeft=4;spacingRight=4;overflow=hidden;rotatable=0;points=[[0,0.5],[1,0.5]];portConstraint=eastwest;whiteSpace=wrap;html=1;fontSize=12;fontFamily=Helvetica;strokeColor=none;fillColor=#dae8fc;rounded=1;" parent="FMd9MbEWiYony1QI66Ri-48" vertex="1">
          <mxGeometry y="120" width="140" height="26" as="geometry" />
        </mxCell>
        <mxCell id="dxM63xS1KSjtT52cdp6n-27" value="- titulo(str)" style="text;align=left;verticalAlign=top;spacingLeft=4;spacingRight=4;overflow=hidden;rotatable=0;points=[[0,0.5],[1,0.5]];portConstraint=eastwest;whiteSpace=wrap;html=1;fontSize=12;fontFamily=Helvetica;strokeColor=none;fillColor=#dae8fc;rounded=1;" parent="FMd9MbEWiYony1QI66Ri-48" vertex="1">
          <mxGeometry y="146" width="140" height="26" as="geometry" />
        </mxCell>
        <mxCell id="dxM63xS1KSjtT52cdp6n-28" value="- salario()" style="text;align=left;verticalAlign=top;spacingLeft=4;spacingRight=4;overflow=hidden;rotatable=0;points=[[0,0.5],[1,0.5]];portConstraint=eastwest;whiteSpace=wrap;html=1;fontSize=12;fontFamily=Helvetica;strokeColor=none;fillColor=#dae8fc;rounded=1;" parent="FMd9MbEWiYony1QI66Ri-48" vertex="1">
          <mxGeometry y="172" width="140" height="26" as="geometry" />
        </mxCell>
        <mxCell id="dxM63xS1KSjtT52cdp6n-29" value="- salario(float)" style="text;align=left;verticalAlign=top;spacingLeft=4;spacingRight=4;overflow=hidden;rotatable=0;points=[[0,0.5],[1,0.5]];portConstraint=eastwest;whiteSpace=wrap;html=1;fontSize=12;fontFamily=Helvetica;strokeColor=none;fillColor=#dae8fc;rounded=1;" parent="FMd9MbEWiYony1QI66Ri-48" vertex="1">
          <mxGeometry y="198" width="140" height="26" as="geometry" />
        </mxCell>
        <mxCell id="FpJMFFJvx9OxjngVxS8z-13" value="Funcionario" style="swimlane;fontStyle=2;align=center;verticalAlign=top;childLayout=stackLayout;horizontal=1;startSize=26;horizontalStack=0;resizeParent=1;resizeLast=0;collapsible=1;marginBottom=0;rounded=1;shadow=0;strokeWidth=1;swimlaneLine=1;strokeColor=#6C8EBF;fillColor=#A6C6F2;" parent="WIyWlLk6GJQsqaUBKTNV-1" vertex="1">
          <mxGeometry x="240" y="260" width="186" height="330" as="geometry">
            <mxRectangle x="230" y="140" width="160" height="26" as="alternateBounds" />
          </mxGeometry>
        </mxCell>
        <mxCell id="FpJMFFJvx9OxjngVxS8z-14" value="- nome: str" style="text;align=left;verticalAlign=top;spacingLeft=4;spacingRight=4;overflow=hidden;rotatable=0;points=[[0,0.5],[1,0.5]];portConstraint=eastwest;strokeColor=none;fillColor=#e8f0fd;rounded=1;shadow=0;" parent="FpJMFFJvx9OxjngVxS8z-13" vertex="1">
          <mxGeometry y="26" width="186" height="26" as="geometry" />
        </mxCell>
        <mxCell id="FpJMFFJvx9OxjngVxS8z-15" value="- cpf: str" style="text;align=left;verticalAlign=top;spacingLeft=4;spacingRight=4;overflow=hidden;rotatable=0;points=[[0,0.5],[1,0.5]];portConstraint=eastwest;rounded=1;shadow=0;html=0;strokeColor=none;fillColor=#e8f0fd;" parent="FpJMFFJvx9OxjngVxS8z-13" vertex="1">
          <mxGeometry y="52" width="186" height="26" as="geometry" />
        </mxCell>
        <mxCell id="FpJMFFJvx9OxjngVxS8z-280" value="- data_nasc: str" style="text;align=left;verticalAlign=top;spacingLeft=4;spacingRight=4;overflow=hidden;rotatable=0;points=[[0,0.5],[1,0.5]];portConstraint=eastwest;strokeColor=none;fillColor=#e8f0fd;rounded=1;shadow=0;" parent="FpJMFFJvx9OxjngVxS8z-13" vertex="1">
          <mxGeometry y="78" width="186" height="26" as="geometry" />
        </mxCell>
        <mxCell id="t7BeZhiAHVBjKm9LZl5y-0" value="- atividade: bool" style="text;align=left;verticalAlign=top;spacingLeft=4;spacingRight=4;overflow=hidden;rotatable=0;points=[[0,0.5],[1,0.5]];portConstraint=eastwest;rounded=1;shadow=0;html=0;strokeColor=none;fillColor=#e8f0fd;" parent="FpJMFFJvx9OxjngVxS8z-13" vertex="1">
          <mxGeometry y="104" width="186" height="26" as="geometry" />
        </mxCell>
        <mxCell id="FpJMFFJvx9OxjngVxS8z-17" value="" style="line;html=1;strokeWidth=1;align=left;verticalAlign=middle;spacingTop=-1;spacingLeft=3;spacingRight=3;rotatable=0;labelPosition=right;points=[];portConstraint=eastwest;dashed=1;strokeColor=none;fillColor=#dae8fc;rounded=1;shadow=0;" parent="FpJMFFJvx9OxjngVxS8z-13" vertex="1">
          <mxGeometry y="130" width="186" height="8" as="geometry" />
        </mxCell>
        <mxCell id="dxM63xS1KSjtT52cdp6n-0" value="- __init__(nome, cpf, data_nasc)" style="text;align=left;verticalAlign=top;spacingLeft=4;spacingRight=4;overflow=hidden;rotatable=0;points=[[0,0.5],[1,0.5]];portConstraint=eastwest;strokeColor=none;fillColor=#dae8fc;rounded=1;shadow=0;" parent="FpJMFFJvx9OxjngVxS8z-13" vertex="1">
          <mxGeometry y="138" width="186" height="32" as="geometry" />
        </mxCell>
        <mxCell id="FpJMFFJvx9OxjngVxS8z-18" value="- nome()" style="text;align=left;verticalAlign=top;spacingLeft=4;spacingRight=4;overflow=hidden;rotatable=0;points=[[0,0.5],[1,0.5]];portConstraint=eastwest;strokeColor=none;fillColor=#DAE8FC;rounded=1;shadow=0;" parent="FpJMFFJvx9OxjngVxS8z-13" vertex="1">
          <mxGeometry y="170" width="186" height="26" as="geometry" />
        </mxCell>
        <mxCell id="FpJMFFJvx9OxjngVxS8z-281" value="- data_nasc()" style="text;align=left;verticalAlign=top;spacingLeft=4;spacingRight=4;overflow=hidden;rotatable=0;points=[[0,0.5],[1,0.5]];portConstraint=eastwest;strokeColor=none;fillColor=#dae8fc;rounded=1;shadow=0;" parent="FpJMFFJvx9OxjngVxS8z-13" vertex="1">
          <mxGeometry y="196" width="186" height="26" as="geometry" />
        </mxCell>
        <mxCell id="FpJMFFJvx9OxjngVxS8z-19" value="- nome(str)" style="text;align=left;verticalAlign=top;spacingLeft=4;spacingRight=4;overflow=hidden;rotatable=0;points=[[0,0.5],[1,0.5]];portConstraint=eastwest;strokeColor=none;fillColor=#dae8fc;rounded=1;shadow=0;" parent="FpJMFFJvx9OxjngVxS8z-13" vertex="1">
          <mxGeometry y="222" width="186" height="26" as="geometry" />
        </mxCell>
        <mxCell id="FpJMFFJvx9OxjngVxS8z-282" value="- data_nasc(str)" style="text;align=left;verticalAlign=top;spacingLeft=4;spacingRight=4;overflow=hidden;rotatable=0;points=[[0,0.5],[1,0.5]];portConstraint=eastwest;strokeColor=none;fillColor=#dae8fc;rounded=1;shadow=0;" parent="FpJMFFJvx9OxjngVxS8z-13" vertex="1">
          <mxGeometry y="248" width="186" height="26" as="geometry" />
        </mxCell>
        <mxCell id="FpJMFFJvx9OxjngVxS8z-20" value="- cpf()" style="text;align=left;verticalAlign=top;spacingLeft=4;spacingRight=4;overflow=hidden;rotatable=0;points=[[0,0.5],[1,0.5]];portConstraint=eastwest;rounded=1;shadow=0;html=0;strokeColor=none;fillColor=#dae8fc;" parent="FpJMFFJvx9OxjngVxS8z-13" vertex="1">
          <mxGeometry y="274" width="186" height="26" as="geometry" />
        </mxCell>
        <mxCell id="FpJMFFJvx9OxjngVxS8z-21" value="- cpf(str)" style="text;align=left;verticalAlign=top;spacingLeft=4;spacingRight=4;overflow=hidden;rotatable=0;points=[[0,0.5],[1,0.5]];portConstraint=eastwest;rounded=1;shadow=0;html=0;strokeColor=none;fillColor=#dae8fc;" parent="FpJMFFJvx9OxjngVxS8z-13" vertex="1">
          <mxGeometry y="300" width="186" height="26" as="geometry" />
        </mxCell>
        <mxCell id="FJltLAKSmcvHp2W2NROA-34" style="edgeStyle=orthogonalEdgeStyle;rounded=1;orthogonalLoop=1;jettySize=auto;html=1;endArrow=block;endFill=0;endSize=20;strokeColor=#6C8EBF;shadow=0;entryX=0.5;entryY=1;entryDx=0;entryDy=0;" parent="WIyWlLk6GJQsqaUBKTNV-1" source="FpJMFFJvx9OxjngVxS8z-25" target="FpJMFFJvx9OxjngVxS8z-13" edge="1">
          <mxGeometry relative="1" as="geometry">
            <Array as="points">
              <mxPoint x="165" y="670" />
              <mxPoint x="333" y="670" />
            </Array>
            <mxPoint x="350" y="610" as="targetPoint" />
          </mxGeometry>
        </mxCell>
        <mxCell id="FpJMFFJvx9OxjngVxS8z-25" value="Gerente" style="swimlane;fontStyle=0;align=center;verticalAlign=top;childLayout=stackLayout;horizontal=1;startSize=26;horizontalStack=0;resizeParent=1;resizeLast=0;collapsible=1;marginBottom=0;rounded=1;shadow=0;strokeWidth=1;swimlaneLine=1;strokeColor=#6C8EBF;fillColor=#A6C6F2;perimeterSpacing=0;" parent="WIyWlLk6GJQsqaUBKTNV-1" vertex="1">
          <mxGeometry x="70" y="702" width="190" height="138" as="geometry">
            <mxRectangle x="230" y="140" width="160" height="26" as="alternateBounds" />
          </mxGeometry>
        </mxCell>
        <mxCell id="FpJMFFJvx9OxjngVxS8z-26" value="- contratos: []" style="text;align=left;verticalAlign=top;spacingLeft=4;spacingRight=4;overflow=hidden;rotatable=0;points=[[0,0.5],[1,0.5]];portConstraint=eastwest;rounded=1;shadow=0;html=0;strokeColor=none;fillColor=#e8f0fd;" parent="FpJMFFJvx9OxjngVxS8z-25" vertex="1">
          <mxGeometry y="26" width="190" height="26" as="geometry" />
        </mxCell>
        <mxCell id="FpJMFFJvx9OxjngVxS8z-27" value="" style="line;html=1;strokeWidth=1;align=left;verticalAlign=middle;spacingTop=-1;spacingLeft=3;spacingRight=3;rotatable=0;labelPosition=right;points=[];portConstraint=eastwest;dashed=1;strokeColor=none;fillColor=#dae8fc;rounded=1;shadow=0;" parent="FpJMFFJvx9OxjngVxS8z-25" vertex="1">
          <mxGeometry y="52" width="190" height="8" as="geometry" />
        </mxCell>
        <mxCell id="FJltLAKSmcvHp2W2NROA-30" value="- contratos()" style="text;align=left;verticalAlign=top;spacingLeft=4;spacingRight=4;overflow=hidden;rotatable=0;points=[[0,0.5],[1,0.5]];portConstraint=eastwest;rounded=1;shadow=0;html=0;strokeColor=none;fillColor=#dae8fc;" parent="FpJMFFJvx9OxjngVxS8z-25" vertex="1">
          <mxGeometry y="60" width="190" height="26" as="geometry" />
        </mxCell>
        <mxCell id="FJltLAKSmcvHp2W2NROA-31" value="- add_contrato()" style="text;align=left;verticalAlign=top;spacingLeft=4;spacingRight=4;overflow=hidden;rotatable=0;points=[[0,0.5],[1,0.5]];portConstraint=eastwest;rounded=1;shadow=0;html=0;strokeColor=none;fillColor=#dae8fc;" parent="FpJMFFJvx9OxjngVxS8z-25" vertex="1">
          <mxGeometry y="86" width="190" height="26" as="geometry" />
        </mxCell>
        <mxCell id="FJltLAKSmcvHp2W2NROA-32" value="- rem_contrato()" style="text;align=left;verticalAlign=top;spacingLeft=4;spacingRight=4;overflow=hidden;rotatable=0;points=[[0,0.5],[1,0.5]];portConstraint=eastwest;rounded=1;shadow=0;html=0;strokeColor=none;fillColor=#dae8fc;" parent="FpJMFFJvx9OxjngVxS8z-25" vertex="1">
          <mxGeometry y="112" width="190" height="26" as="geometry" />
        </mxCell>
        <mxCell id="FpJMFFJvx9OxjngVxS8z-31" value="FunComum" style="swimlane;fontStyle=0;align=center;verticalAlign=top;childLayout=stackLayout;horizontal=1;startSize=26;horizontalStack=0;resizeParent=1;resizeLast=0;collapsible=1;marginBottom=0;rounded=1;shadow=0;strokeWidth=1;swimlaneLine=1;strokeColor=#6C8EBF;fillColor=#A6C6F2;" parent="WIyWlLk6GJQsqaUBKTNV-1" vertex="1">
          <mxGeometry x="290" y="712" width="170" height="60" as="geometry">
            <mxRectangle x="230" y="140" width="160" height="26" as="alternateBounds" />
          </mxGeometry>
        </mxCell>
        <mxCell id="FpJMFFJvx9OxjngVxS8z-32" value="" style="text;align=left;verticalAlign=top;spacingLeft=4;spacingRight=4;overflow=hidden;rotatable=0;points=[[0,0.5],[1,0.5]];portConstraint=eastwest;rounded=1;shadow=0;html=0;strokeColor=none;fillColor=#e8f0fd;" parent="FpJMFFJvx9OxjngVxS8z-31" vertex="1">
          <mxGeometry y="26" width="170" height="26" as="geometry" />
        </mxCell>
        <mxCell id="FpJMFFJvx9OxjngVxS8z-33" value="" style="line;html=1;strokeWidth=1;align=left;verticalAlign=middle;spacingTop=-1;spacingLeft=3;spacingRight=3;rotatable=0;labelPosition=right;points=[];portConstraint=eastwest;dashed=1;strokeColor=none;fillColor=#dae8fc;rounded=1;shadow=0;" parent="FpJMFFJvx9OxjngVxS8z-31" vertex="1">
          <mxGeometry y="52" width="170" height="8" as="geometry" />
        </mxCell>
        <mxCell id="zMUwehsQKJZIWUGshv16-0" style="edgeStyle=orthogonalEdgeStyle;rounded=0;orthogonalLoop=1;jettySize=auto;html=1;entryX=-0.027;entryY=1.067;entryDx=0;entryDy=0;entryPerimeter=0;endArrow=open;endFill=0;endSize=16;fillColor=#dae8fc;strokeColor=#6c8ebf;" parent="WIyWlLk6GJQsqaUBKTNV-1" source="FpJMFFJvx9OxjngVxS8z-36" target="FMd9MbEWiYony1QI66Ri-50" edge="1">
          <mxGeometry relative="1" as="geometry" />
        </mxCell>
        <mxCell id="FpJMFFJvx9OxjngVxS8z-36" value="Contrato" style="swimlane;fontStyle=0;align=center;verticalAlign=top;childLayout=stackLayout;horizontal=1;startSize=26;horizontalStack=0;resizeParent=1;resizeLast=0;collapsible=1;marginBottom=0;rounded=1;shadow=0;strokeWidth=1;swimlaneLine=1;strokeColor=#6C8EBF;fillColor=#A6C6F2;" parent="WIyWlLk6GJQsqaUBKTNV-1" vertex="1">
          <mxGeometry x="490" y="155" width="190" height="698" as="geometry">
            <mxRectangle x="230" y="140" width="160" height="26" as="alternateBounds" />
          </mxGeometry>
        </mxCell>
        <mxCell id="6TJ5mSXtSwyp7b67H06s-2" value="- id: int" style="text;align=left;verticalAlign=top;spacingLeft=4;spacingRight=4;overflow=hidden;rotatable=0;points=[[0,0.5],[1,0.5]];portConstraint=eastwest;whiteSpace=wrap;html=1;fontSize=12;fontFamily=Helvetica;strokeColor=none;fillColor=#e8f0fd;rounded=1;shadow=0;" parent="FpJMFFJvx9OxjngVxS8z-36" vertex="1">
          <mxGeometry y="26" width="190" height="26" as="geometry" />
        </mxCell>
        <mxCell id="FpJMFFJvx9OxjngVxS8z-37" value="- data_inicio: str" style="text;align=left;verticalAlign=top;spacingLeft=4;spacingRight=4;overflow=hidden;rotatable=0;points=[[0,0.5],[1,0.5]];portConstraint=eastwest;rounded=1;shadow=0;html=0;strokeColor=none;fillColor=#e8f0fd;" parent="FpJMFFJvx9OxjngVxS8z-36" vertex="1">
          <mxGeometry y="52" width="190" height="26" as="geometry" />
        </mxCell>
        <mxCell id="FpJMFFJvx9OxjngVxS8z-38" value="- data_final: str" style="text;align=left;verticalAlign=top;spacingLeft=4;spacingRight=4;overflow=hidden;rotatable=0;points=[[0,0.5],[1,0.5]];portConstraint=eastwest;rounded=1;shadow=0;html=0;strokeColor=none;fillColor=#e8f0fd;" parent="FpJMFFJvx9OxjngVxS8z-36" vertex="1">
          <mxGeometry y="78" width="190" height="26" as="geometry" />
        </mxCell>
        <mxCell id="FpJMFFJvx9OxjngVxS8z-69" value="- cargo: Cargo" style="text;align=left;verticalAlign=top;spacingLeft=4;spacingRight=4;overflow=hidden;rotatable=0;points=[[0,0.5],[1,0.5]];portConstraint=eastwest;rounded=1;shadow=0;html=0;strokeColor=none;fillColor=#e8f0fd;" parent="FpJMFFJvx9OxjngVxS8z-36" vertex="1">
          <mxGeometry y="104" width="190" height="26" as="geometry" />
        </mxCell>
        <mxCell id="FpJMFFJvx9OxjngVxS8z-39" value="- empregado: Funcionário" style="text;align=left;verticalAlign=top;spacingLeft=4;spacingRight=4;overflow=hidden;rotatable=0;points=[[0,0.5],[1,0.5]];portConstraint=eastwest;rounded=1;shadow=0;html=0;strokeColor=none;fillColor=#e8f0fd;" parent="FpJMFFJvx9OxjngVxS8z-36" vertex="1">
          <mxGeometry y="130" width="190" height="26" as="geometry" />
        </mxCell>
        <mxCell id="FJltLAKSmcvHp2W2NROA-43" value="- empregador: Gerente" style="text;align=left;verticalAlign=top;spacingLeft=4;spacingRight=4;overflow=hidden;rotatable=0;points=[[0,0.5],[1,0.5]];portConstraint=eastwest;rounded=1;shadow=0;html=0;strokeColor=none;fillColor=#e8f0fd;" parent="FpJMFFJvx9OxjngVxS8z-36" vertex="1">
          <mxGeometry y="156" width="190" height="26" as="geometry" />
        </mxCell>
        <mxCell id="FpJMFFJvx9OxjngVxS8z-40" value="- filial: Filial" style="text;align=left;verticalAlign=top;spacingLeft=4;spacingRight=4;overflow=hidden;rotatable=0;points=[[0,0.5],[1,0.5]];portConstraint=eastwest;rounded=1;shadow=0;html=0;strokeColor=none;fillColor=#e8f0fd;" parent="FpJMFFJvx9OxjngVxS8z-36" vertex="1">
          <mxGeometry y="182" width="190" height="26" as="geometry" />
        </mxCell>
        <mxCell id="FJltLAKSmcvHp2W2NROA-2" value="- mud_cargos: []" style="text;align=left;verticalAlign=top;spacingLeft=4;spacingRight=4;overflow=hidden;rotatable=0;points=[[0,0.5],[1,0.5]];portConstraint=eastwest;rounded=1;shadow=0;html=0;strokeColor=none;fillColor=#e8f0fd;" parent="FpJMFFJvx9OxjngVxS8z-36" vertex="1">
          <mxGeometry y="208" width="190" height="26" as="geometry" />
        </mxCell>
        <mxCell id="FJltLAKSmcvHp2W2NROA-4" value="- transferencias: []" style="text;align=left;verticalAlign=top;spacingLeft=4;spacingRight=4;overflow=hidden;rotatable=0;points=[[0,0.5],[1,0.5]];portConstraint=eastwest;rounded=1;shadow=0;html=0;strokeColor=none;fillColor=#e8f0fd;" parent="FpJMFFJvx9OxjngVxS8z-36" vertex="1">
          <mxGeometry y="234" width="190" height="26" as="geometry" />
        </mxCell>
        <mxCell id="FpJMFFJvx9OxjngVxS8z-41" value="" style="line;html=1;strokeWidth=1;align=left;verticalAlign=middle;spacingTop=-1;spacingLeft=3;spacingRight=3;rotatable=0;labelPosition=right;points=[];portConstraint=eastwest;dashed=1;strokeColor=none;fillColor=#FCFCFC;rounded=1;shadow=0;" parent="FpJMFFJvx9OxjngVxS8z-36" vertex="1">
          <mxGeometry y="260" width="190" height="8" as="geometry" />
        </mxCell>
        <mxCell id="dxM63xS1KSjtT52cdp6n-19" value="- __init__(data_inicio, cargo, &#xa;empregado, filial)" style="text;align=left;verticalAlign=top;spacingLeft=4;spacingRight=4;overflow=hidden;rotatable=0;points=[[0,0.5],[1,0.5]];portConstraint=eastwest;strokeColor=none;fillColor=#dae8fc;rounded=1;shadow=0;" parent="FpJMFFJvx9OxjngVxS8z-36" vertex="1">
          <mxGeometry y="268" width="190" height="40" as="geometry" />
        </mxCell>
        <mxCell id="6TJ5mSXtSwyp7b67H06s-3" value="- id()" style="text;align=left;verticalAlign=top;spacingLeft=4;spacingRight=4;overflow=hidden;rotatable=0;points=[[0,0.5],[1,0.5]];portConstraint=eastwest;whiteSpace=wrap;html=1;fontSize=12;fontFamily=Helvetica;strokeColor=none;fillColor=#dae8fc;rounded=1;shadow=0;" parent="FpJMFFJvx9OxjngVxS8z-36" vertex="1">
          <mxGeometry y="308" width="190" height="26" as="geometry" />
        </mxCell>
        <mxCell id="FpJMFFJvx9OxjngVxS8z-42" value="- data_inicio()" style="text;align=left;verticalAlign=top;spacingLeft=4;spacingRight=4;overflow=hidden;rotatable=0;points=[[0,0.5],[1,0.5]];portConstraint=eastwest;rounded=1;shadow=0;html=0;strokeColor=none;fillColor=#dae8fc;" parent="FpJMFFJvx9OxjngVxS8z-36" vertex="1">
          <mxGeometry y="334" width="190" height="26" as="geometry" />
        </mxCell>
        <mxCell id="FpJMFFJvx9OxjngVxS8z-43" value="- data_inicio(str)" style="text;align=left;verticalAlign=top;spacingLeft=4;spacingRight=4;overflow=hidden;rotatable=0;points=[[0,0.5],[1,0.5]];portConstraint=eastwest;rounded=1;shadow=0;html=0;strokeColor=none;fillColor=#dae8fc;" parent="FpJMFFJvx9OxjngVxS8z-36" vertex="1">
          <mxGeometry y="360" width="190" height="26" as="geometry" />
        </mxCell>
        <mxCell id="FpJMFFJvx9OxjngVxS8z-44" value="- data_final()" style="text;align=left;verticalAlign=top;spacingLeft=4;spacingRight=4;overflow=hidden;rotatable=0;points=[[0,0.5],[1,0.5]];portConstraint=eastwest;rounded=1;shadow=0;html=0;strokeColor=none;fillColor=#dae8fc;" parent="FpJMFFJvx9OxjngVxS8z-36" vertex="1">
          <mxGeometry y="386" width="190" height="26" as="geometry" />
        </mxCell>
        <mxCell id="FpJMFFJvx9OxjngVxS8z-45" value="- data_final(str)" style="text;align=left;verticalAlign=top;spacingLeft=4;spacingRight=4;overflow=hidden;rotatable=0;points=[[0,0.5],[1,0.5]];portConstraint=eastwest;rounded=1;shadow=0;html=0;strokeColor=none;fillColor=#dae8fc;" parent="FpJMFFJvx9OxjngVxS8z-36" vertex="1">
          <mxGeometry y="412" width="190" height="26" as="geometry" />
        </mxCell>
        <mxCell id="FpJMFFJvx9OxjngVxS8z-46" value="- empregado()" style="text;align=left;verticalAlign=top;spacingLeft=4;spacingRight=4;overflow=hidden;rotatable=0;points=[[0,0.5],[1,0.5]];portConstraint=eastwest;rounded=1;shadow=0;html=0;strokeColor=none;fillColor=#dae8fc;" parent="FpJMFFJvx9OxjngVxS8z-36" vertex="1">
          <mxGeometry y="438" width="190" height="26" as="geometry" />
        </mxCell>
        <mxCell id="FpJMFFJvx9OxjngVxS8z-47" value="- empregado(Funcionario)" style="text;align=left;verticalAlign=top;spacingLeft=4;spacingRight=4;overflow=hidden;rotatable=0;points=[[0,0.5],[1,0.5]];portConstraint=eastwest;rounded=1;shadow=0;html=0;strokeColor=none;fillColor=#dae8fc;" parent="FpJMFFJvx9OxjngVxS8z-36" vertex="1">
          <mxGeometry y="464" width="190" height="26" as="geometry" />
        </mxCell>
        <mxCell id="FpJMFFJvx9OxjngVxS8z-50" value="- filial()" style="text;align=left;verticalAlign=top;spacingLeft=4;spacingRight=4;overflow=hidden;rotatable=0;points=[[0,0.5],[1,0.5]];portConstraint=eastwest;rounded=1;shadow=0;html=0;strokeColor=none;fillColor=#dae8fc;" parent="FpJMFFJvx9OxjngVxS8z-36" vertex="1">
          <mxGeometry y="490" width="190" height="26" as="geometry" />
        </mxCell>
        <mxCell id="FpJMFFJvx9OxjngVxS8z-51" value="- filial(Filial)" style="text;align=left;verticalAlign=top;spacingLeft=4;spacingRight=4;overflow=hidden;rotatable=0;points=[[0,0.5],[1,0.5]];portConstraint=eastwest;rounded=1;shadow=0;html=0;strokeColor=none;fillColor=#dae8fc;" parent="FpJMFFJvx9OxjngVxS8z-36" vertex="1">
          <mxGeometry y="516" width="190" height="26" as="geometry" />
        </mxCell>
        <mxCell id="FJltLAKSmcvHp2W2NROA-24" value="- transferencias()" style="text;align=left;verticalAlign=top;spacingLeft=4;spacingRight=4;overflow=hidden;rotatable=0;points=[[0,0.5],[1,0.5]];portConstraint=eastwest;rounded=1;shadow=0;html=0;strokeColor=none;fillColor=#dae8fc;" parent="FpJMFFJvx9OxjngVxS8z-36" vertex="1">
          <mxGeometry y="542" width="190" height="26" as="geometry" />
        </mxCell>
        <mxCell id="FJltLAKSmcvHp2W2NROA-25" value="- mud_cargo()" style="text;align=left;verticalAlign=top;spacingLeft=4;spacingRight=4;overflow=hidden;rotatable=0;points=[[0,0.5],[1,0.5]];portConstraint=eastwest;rounded=1;shadow=0;html=0;strokeColor=none;fillColor=#dae8fc;" parent="FpJMFFJvx9OxjngVxS8z-36" vertex="1">
          <mxGeometry y="568" width="190" height="26" as="geometry" />
        </mxCell>
        <mxCell id="FJltLAKSmcvHp2W2NROA-6" value="- add_transf(filial_nova)" style="text;align=left;verticalAlign=top;spacingLeft=4;spacingRight=4;overflow=hidden;rotatable=0;points=[[0,0.5],[1,0.5]];portConstraint=eastwest;rounded=1;shadow=0;html=0;strokeColor=none;fillColor=#dae8fc;" parent="FpJMFFJvx9OxjngVxS8z-36" vertex="1">
          <mxGeometry y="594" width="190" height="26" as="geometry" />
        </mxCell>
        <mxCell id="FJltLAKSmcvHp2W2NROA-21" value="- add_mud_cargo(filial_nova)" style="text;align=left;verticalAlign=top;spacingLeft=4;spacingRight=4;overflow=hidden;rotatable=0;points=[[0,0.5],[1,0.5]];portConstraint=eastwest;rounded=1;shadow=0;html=0;strokeColor=none;fillColor=#dae8fc;" parent="FpJMFFJvx9OxjngVxS8z-36" vertex="1">
          <mxGeometry y="620" width="190" height="26" as="geometry" />
        </mxCell>
        <mxCell id="FJltLAKSmcvHp2W2NROA-22" value="- rem_transf()" style="text;align=left;verticalAlign=top;spacingLeft=4;spacingRight=4;overflow=hidden;rotatable=0;points=[[0,0.5],[1,0.5]];portConstraint=eastwest;rounded=1;shadow=0;html=0;strokeColor=none;fillColor=#dae8fc;" parent="FpJMFFJvx9OxjngVxS8z-36" vertex="1">
          <mxGeometry y="646" width="190" height="26" as="geometry" />
        </mxCell>
        <mxCell id="FJltLAKSmcvHp2W2NROA-23" value="- rem_mud_cargo()" style="text;align=left;verticalAlign=top;spacingLeft=4;spacingRight=4;overflow=hidden;rotatable=0;points=[[0,0.5],[1,0.5]];portConstraint=eastwest;rounded=1;shadow=0;html=0;strokeColor=none;fillColor=#dae8fc;" parent="FpJMFFJvx9OxjngVxS8z-36" vertex="1">
          <mxGeometry y="672" width="190" height="26" as="geometry" />
        </mxCell>
        <mxCell id="FpJMFFJvx9OxjngVxS8z-52" value="Filial" style="swimlane;fontStyle=0;align=center;verticalAlign=top;childLayout=stackLayout;horizontal=1;startSize=26;horizontalStack=0;resizeParent=1;resizeLast=0;collapsible=1;marginBottom=0;rounded=1;shadow=0;strokeWidth=1;swimlaneLine=1;strokeColor=#6C8EBF;fillColor=#a6c6f2;swimlaneFillColor=default;" parent="WIyWlLk6GJQsqaUBKTNV-1" vertex="1">
          <mxGeometry x="10" y="236" width="180" height="400" as="geometry">
            <mxRectangle x="230" y="140" width="160" height="26" as="alternateBounds" />
          </mxGeometry>
        </mxCell>
        <mxCell id="FpJMFFJvx9OxjngVxS8z-53" value="- cep: str" style="text;align=left;verticalAlign=top;spacingLeft=4;spacingRight=4;overflow=hidden;rotatable=0;points=[[0,0.5],[1,0.5]];portConstraint=eastwest;strokeColor=none;fillColor=#e8f0fd;rounded=1;shadow=0;" parent="FpJMFFJvx9OxjngVxS8z-52" vertex="1">
          <mxGeometry y="26" width="180" height="26" as="geometry" />
        </mxCell>
        <mxCell id="1QmtrgUNV1MQR9XVLwK_-1" value="- cidade: str" style="text;align=left;verticalAlign=top;spacingLeft=4;spacingRight=4;overflow=hidden;rotatable=0;points=[[0,0.5],[1,0.5]];portConstraint=eastwest;strokeColor=none;fillColor=#e8f0fd;rounded=1;shadow=0;" parent="FpJMFFJvx9OxjngVxS8z-52" vertex="1">
          <mxGeometry y="52" width="180" height="26" as="geometry" />
        </mxCell>
        <mxCell id="FpJMFFJvx9OxjngVxS8z-54" value="- gerente: Gerente" style="text;align=left;verticalAlign=top;spacingLeft=4;spacingRight=4;overflow=hidden;rotatable=0;points=[[0,0.5],[1,0.5]];portConstraint=eastwest;rounded=1;shadow=0;html=0;strokeColor=none;fillColor=#e8f0fd;" parent="FpJMFFJvx9OxjngVxS8z-52" vertex="1">
          <mxGeometry y="78" width="180" height="26" as="geometry" />
        </mxCell>
        <mxCell id="FpJMFFJvx9OxjngVxS8z-55" value="- funcionarios: []" style="text;align=left;verticalAlign=top;spacingLeft=4;spacingRight=4;overflow=hidden;rotatable=0;points=[[0,0.5],[1,0.5]];portConstraint=eastwest;rounded=1;shadow=0;html=0;strokeColor=none;fillColor=#e8f0fd;" parent="FpJMFFJvx9OxjngVxS8z-52" vertex="1">
          <mxGeometry y="104" width="180" height="26" as="geometry" />
        </mxCell>
        <mxCell id="FpJMFFJvx9OxjngVxS8z-56" value="" style="line;html=1;strokeWidth=1;align=left;verticalAlign=middle;spacingTop=-1;spacingLeft=3;spacingRight=3;rotatable=0;labelPosition=right;points=[];portConstraint=eastwest;dashed=1;strokeColor=none;fillColor=#dae8fc;rounded=1;shadow=0;" parent="FpJMFFJvx9OxjngVxS8z-52" vertex="1">
          <mxGeometry y="130" width="180" height="8" as="geometry" />
        </mxCell>
        <mxCell id="dxM63xS1KSjtT52cdp6n-31" value="- __init__(cep, cidade, gerente)" style="text;align=left;verticalAlign=top;spacingLeft=4;spacingRight=4;overflow=hidden;rotatable=0;points=[[0,0.5],[1,0.5]];portConstraint=eastwest;strokeColor=none;fillColor=#dae8fc;rounded=1;shadow=0;" parent="FpJMFFJvx9OxjngVxS8z-52" vertex="1">
          <mxGeometry y="138" width="180" height="28" as="geometry" />
        </mxCell>
        <mxCell id="FpJMFFJvx9OxjngVxS8z-57" value="- cep()" style="text;align=left;verticalAlign=top;spacingLeft=4;spacingRight=4;overflow=hidden;rotatable=0;points=[[0,0.5],[1,0.5]];portConstraint=eastwest;strokeColor=none;fillColor=#dae8fc;rounded=1;shadow=0;" parent="FpJMFFJvx9OxjngVxS8z-52" vertex="1">
          <mxGeometry y="166" width="180" height="26" as="geometry" />
        </mxCell>
        <mxCell id="FpJMFFJvx9OxjngVxS8z-58" value="- cep(str)" style="text;align=left;verticalAlign=top;spacingLeft=4;spacingRight=4;overflow=hidden;rotatable=0;points=[[0,0.5],[1,0.5]];portConstraint=eastwest;strokeColor=none;fillColor=#dae8fc;rounded=1;shadow=0;" parent="FpJMFFJvx9OxjngVxS8z-52" vertex="1">
          <mxGeometry y="192" width="180" height="26" as="geometry" />
        </mxCell>
        <mxCell id="1QmtrgUNV1MQR9XVLwK_-2" value="- cidade()" style="text;align=left;verticalAlign=top;spacingLeft=4;spacingRight=4;overflow=hidden;rotatable=0;points=[[0,0.5],[1,0.5]];portConstraint=eastwest;strokeColor=none;fillColor=#dae8fc;rounded=1;shadow=0;" parent="FpJMFFJvx9OxjngVxS8z-52" vertex="1">
          <mxGeometry y="218" width="180" height="26" as="geometry" />
        </mxCell>
        <mxCell id="1QmtrgUNV1MQR9XVLwK_-3" value="- cidade(str)" style="text;align=left;verticalAlign=top;spacingLeft=4;spacingRight=4;overflow=hidden;rotatable=0;points=[[0,0.5],[1,0.5]];portConstraint=eastwest;strokeColor=none;fillColor=#dae8fc;rounded=1;shadow=0;" parent="FpJMFFJvx9OxjngVxS8z-52" vertex="1">
          <mxGeometry y="244" width="180" height="26" as="geometry" />
        </mxCell>
        <mxCell id="FpJMFFJvx9OxjngVxS8z-59" value="- gerente()" style="text;align=left;verticalAlign=top;spacingLeft=4;spacingRight=4;overflow=hidden;rotatable=0;points=[[0,0.5],[1,0.5]];portConstraint=eastwest;rounded=1;shadow=0;html=0;strokeColor=none;fillColor=#dae8fc;" parent="FpJMFFJvx9OxjngVxS8z-52" vertex="1">
          <mxGeometry y="270" width="180" height="26" as="geometry" />
        </mxCell>
        <mxCell id="FpJMFFJvx9OxjngVxS8z-60" value="- gerente(Gerente)" style="text;align=left;verticalAlign=top;spacingLeft=4;spacingRight=4;overflow=hidden;rotatable=0;points=[[0,0.5],[1,0.5]];portConstraint=eastwest;rounded=1;shadow=0;html=0;strokeColor=none;fillColor=#dae8fc;" parent="FpJMFFJvx9OxjngVxS8z-52" vertex="1">
          <mxGeometry y="296" width="180" height="26" as="geometry" />
        </mxCell>
        <mxCell id="FpJMFFJvx9OxjngVxS8z-61" value="- funcionarios()" style="text;align=left;verticalAlign=top;spacingLeft=4;spacingRight=4;overflow=hidden;rotatable=0;points=[[0,0.5],[1,0.5]];portConstraint=eastwest;rounded=1;shadow=0;html=0;strokeColor=none;fillColor=#dae8fc;" parent="FpJMFFJvx9OxjngVxS8z-52" vertex="1">
          <mxGeometry y="322" width="180" height="26" as="geometry" />
        </mxCell>
        <mxCell id="FpJMFFJvx9OxjngVxS8z-62" value="- add_funcionario()" style="text;align=left;verticalAlign=top;spacingLeft=4;spacingRight=4;overflow=hidden;rotatable=0;points=[[0,0.5],[1,0.5]];portConstraint=eastwest;rounded=1;shadow=0;html=0;strokeColor=none;fillColor=#dae8fc;" parent="FpJMFFJvx9OxjngVxS8z-52" vertex="1">
          <mxGeometry y="348" width="180" height="26" as="geometry" />
        </mxCell>
        <mxCell id="FJltLAKSmcvHp2W2NROA-26" value="- rem_funcionario(cpf)" style="text;align=left;verticalAlign=top;spacingLeft=4;spacingRight=4;overflow=hidden;rotatable=0;points=[[0,0.5],[1,0.5]];portConstraint=eastwest;rounded=1;shadow=0;html=0;strokeColor=none;fillColor=#dae8fc;" parent="FpJMFFJvx9OxjngVxS8z-52" vertex="1">
          <mxGeometry y="374" width="180" height="26" as="geometry" />
        </mxCell>
        <mxCell id="FJltLAKSmcvHp2W2NROA-44" value="" style="edgeStyle=orthogonalEdgeStyle;rounded=1;orthogonalLoop=1;jettySize=auto;html=1;strokeColor=#FFFFFF;fontColor=#FFFFFF;exitX=0;exitY=0.5;exitDx=0;exitDy=0;shadow=0;" parent="WIyWlLk6GJQsqaUBKTNV-1" source="FJltLAKSmcvHp2W2NROA-2" target="dxM63xS1KSjtT52cdp6n-0" edge="1">
          <mxGeometry relative="1" as="geometry" />
        </mxCell>
        <mxCell id="FJltLAKSmcvHp2W2NROA-1" style="edgeStyle=orthogonalEdgeStyle;rounded=1;orthogonalLoop=1;jettySize=auto;html=1;endSize=20;endArrow=open;endFill=0;strokeColor=#6C8EBF;exitX=0;exitY=0.5;exitDx=0;exitDy=0;shadow=0;" parent="WIyWlLk6GJQsqaUBKTNV-1" source="FJltLAKSmcvHp2W2NROA-4" edge="1">
          <mxGeometry relative="1" as="geometry">
            <mxPoint x="426" y="399" as="targetPoint" />
            <Array as="points">
              <mxPoint x="470" y="415" />
              <mxPoint x="470" y="399" />
              <mxPoint x="426" y="399" />
            </Array>
          </mxGeometry>
        </mxCell>
        <mxCell id="1QmtrgUNV1MQR9XVLwK_-0" value="" style="endArrow=open;endFill=0;endSize=20;html=1;rounded=1;fontSize=11;exitX=0.25;exitY=0;exitDx=0;exitDy=0;entryX=0.5;entryY=0;entryDx=0;entryDy=0;strokeColor=#6C8EBF;shadow=0;" parent="WIyWlLk6GJQsqaUBKTNV-1" source="FpJMFFJvx9OxjngVxS8z-36" target="FpJMFFJvx9OxjngVxS8z-52" edge="1">
          <mxGeometry width="160" relative="1" as="geometry">
            <mxPoint x="500" y="390" as="sourcePoint" />
            <mxPoint x="660" y="390" as="targetPoint" />
            <Array as="points">
              <mxPoint x="537" y="120" />
              <mxPoint x="100" y="120" />
            </Array>
          </mxGeometry>
        </mxCell>
        <mxCell id="1QmtrgUNV1MQR9XVLwK_-4" style="edgeStyle=orthogonalEdgeStyle;rounded=1;orthogonalLoop=1;jettySize=auto;html=1;endArrow=block;endFill=0;endSize=20;strokeColor=#6C8EBF;shadow=0;entryX=0.488;entryY=1.069;entryDx=0;entryDy=0;entryPerimeter=0;" parent="WIyWlLk6GJQsqaUBKTNV-1" target="FpJMFFJvx9OxjngVxS8z-21" edge="1">
          <mxGeometry relative="1" as="geometry">
            <Array as="points">
              <mxPoint x="380" y="670" />
              <mxPoint x="331" y="670" />
            </Array>
            <mxPoint x="380" y="710" as="sourcePoint" />
            <mxPoint x="330" y="600" as="targetPoint" />
          </mxGeometry>
        </mxCell>
        <mxCell id="1QmtrgUNV1MQR9XVLwK_-6" value="" style="endArrow=open;endFill=0;endSize=20;html=1;rounded=1;fontSize=11;curved=1;strokeColor=#6C8EBF;shadow=0;exitX=0.5;exitY=1;exitDx=0;exitDy=0;" parent="WIyWlLk6GJQsqaUBKTNV-1" source="FpJMFFJvx9OxjngVxS8z-31" edge="1">
          <mxGeometry width="160" relative="1" as="geometry">
            <mxPoint x="380" y="590" as="sourcePoint" />
            <mxPoint x="260" y="810" as="targetPoint" />
            <Array as="points">
              <mxPoint x="380" y="820" />
            </Array>
          </mxGeometry>
        </mxCell>
        <mxCell id="6TJ5mSXtSwyp7b67H06s-8" value="1" style="text;strokeColor=none;fillColor=none;html=1;align=center;verticalAlign=middle;whiteSpace=wrap;rounded=0;fontSize=14;" parent="WIyWlLk6GJQsqaUBKTNV-1" vertex="1">
          <mxGeometry x="100" y="206" width="60" height="30" as="geometry" />
        </mxCell>
        <mxCell id="6TJ5mSXtSwyp7b67H06s-9" value="1" style="text;strokeColor=none;fillColor=none;html=1;align=center;verticalAlign=middle;whiteSpace=wrap;rounded=0;fontSize=14;" parent="WIyWlLk6GJQsqaUBKTNV-1" vertex="1">
          <mxGeometry x="250" y="823" width="60" height="30" as="geometry" />
        </mxCell>
        <mxCell id="6TJ5mSXtSwyp7b67H06s-10" value="1" style="text;strokeColor=none;fillColor=none;html=1;align=center;verticalAlign=middle;whiteSpace=wrap;rounded=0;fontSize=14;" parent="WIyWlLk6GJQsqaUBKTNV-1" vertex="1">
          <mxGeometry x="1050" y="294" width="60" height="30" as="geometry" />
        </mxCell>
        <mxCell id="6TJ5mSXtSwyp7b67H06s-11" value="1..*" style="text;strokeColor=none;fillColor=none;html=1;align=center;verticalAlign=middle;whiteSpace=wrap;rounded=0;fontSize=14;" parent="WIyWlLk6GJQsqaUBKTNV-1" vertex="1">
          <mxGeometry x="190" y="390" width="60" height="30" as="geometry" />
        </mxCell>
        <mxCell id="6TJ5mSXtSwyp7b67H06s-12" value="2" style="text;strokeColor=none;fillColor=none;html=1;align=center;verticalAlign=middle;whiteSpace=wrap;rounded=0;fontSize=14;" parent="WIyWlLk6GJQsqaUBKTNV-1" vertex="1">
          <mxGeometry x="426" y="360" width="60" height="30" as="geometry" />
        </mxCell>
        <mxCell id="6TJ5mSXtSwyp7b67H06s-15" value="1" style="text;strokeColor=none;fillColor=none;html=1;align=center;verticalAlign=middle;whiteSpace=wrap;rounded=0;fontSize=14;" parent="WIyWlLk6GJQsqaUBKTNV-1" vertex="1">
          <mxGeometry x="950" y="294" width="60" height="30" as="geometry" />
        </mxCell>
        <mxCell id="6TJ5mSXtSwyp7b67H06s-17" value="1" style="text;strokeColor=none;fillColor=none;html=1;align=center;verticalAlign=middle;whiteSpace=wrap;rounded=0;fontSize=14;" parent="WIyWlLk6GJQsqaUBKTNV-1" vertex="1">
          <mxGeometry x="310" y="230" width="60" height="30" as="geometry" />
        </mxCell>
        <mxCell id="6TJ5mSXtSwyp7b67H06s-18" value="1" style="text;strokeColor=none;fillColor=none;html=1;align=center;verticalAlign=middle;whiteSpace=wrap;rounded=0;fontSize=14;" parent="WIyWlLk6GJQsqaUBKTNV-1" vertex="1">
          <mxGeometry x="30" y="636" width="60" height="30" as="geometry" />
        </mxCell>
        <mxCell id="6TJ5mSXtSwyp7b67H06s-21" value="1" style="text;strokeColor=none;fillColor=none;html=1;align=center;verticalAlign=middle;whiteSpace=wrap;rounded=0;fontSize=14;" parent="WIyWlLk6GJQsqaUBKTNV-1" vertex="1">
          <mxGeometry x="400" y="590" width="60" height="30" as="geometry" />
        </mxCell>
        <mxCell id="1QmtrgUNV1MQR9XVLwK_-5" value="" style="endArrow=diamond;endFill=0;endSize=20;html=1;rounded=1;fontSize=11;curved=1;strokeColor=#6C8EBF;shadow=0;entryX=1;entryY=0.5;entryDx=0;entryDy=0;exitX=0;exitY=0.5;exitDx=0;exitDy=0;" parent="WIyWlLk6GJQsqaUBKTNV-1" source="FpJMFFJvx9OxjngVxS8z-18" target="FpJMFFJvx9OxjngVxS8z-58" edge="1">
          <mxGeometry width="160" relative="1" as="geometry">
            <mxPoint x="180" y="430" as="sourcePoint" />
            <mxPoint x="240" y="430" as="targetPoint" />
          </mxGeometry>
        </mxCell>
        <mxCell id="PUjruNRS7oLcWsMUaFnQ-0" style="edgeStyle=orthogonalEdgeStyle;rounded=0;orthogonalLoop=1;jettySize=auto;html=1;endArrow=open;endFill=0;endSize=10;fillColor=#e1d5e7;strokeColor=#9673a6;entryX=1;entryY=0.25;entryDx=0;entryDy=0;" parent="WIyWlLk6GJQsqaUBKTNV-1" source="PUjruNRS7oLcWsMUaFnQ-1" target="PUjruNRS7oLcWsMUaFnQ-114" edge="1">
          <mxGeometry relative="1" as="geometry">
            <mxPoint x="2281" y="-139.99999999999977" as="targetPoint" />
            <Array as="points">
              <mxPoint x="2281" y="-383" />
            </Array>
          </mxGeometry>
        </mxCell>
        <mxCell id="PUjruNRS7oLcWsMUaFnQ-1" value="ControladorGerente" style="swimlane;fontStyle=0;align=center;verticalAlign=top;childLayout=stackLayout;horizontal=1;startSize=26;horizontalStack=0;resizeParent=1;resizeLast=0;collapsible=1;marginBottom=0;rounded=1;shadow=0;strokeWidth=1;fillColor=#E5CCFF;strokeColor=#9673a6;labelBackgroundColor=none;fillStyle=auto;gradientDirection=west;swimlaneFillColor=#FFFFFF;swimlaneLine=1;gradientColor=#CC99FF;" parent="WIyWlLk6GJQsqaUBKTNV-1" vertex="1">
          <mxGeometry x="2181" y="-80" width="200" height="200" as="geometry">
            <mxRectangle x="340" y="380" width="170" height="26" as="alternateBounds" />
          </mxGeometry>
        </mxCell>
        <mxCell id="PUjruNRS7oLcWsMUaFnQ-2" value="- gerentes: []" style="text;align=left;verticalAlign=top;spacingLeft=4;spacingRight=4;overflow=hidden;rotatable=0;points=[[0,0.5],[1,0.5]];portConstraint=eastwest;labelBackgroundColor=none;fillColor=none;strokeColor=none;swimlaneLine=1;shadow=0;" parent="PUjruNRS7oLcWsMUaFnQ-1" vertex="1">
          <mxGeometry y="26" width="200" height="26" as="geometry" />
        </mxCell>
        <mxCell id="PUjruNRS7oLcWsMUaFnQ-3" value="- control_filial: ControladorFilial" style="text;align=left;verticalAlign=top;spacingLeft=4;spacingRight=4;overflow=hidden;rotatable=0;points=[[0,0.5],[1,0.5]];portConstraint=eastwest;labelBackgroundColor=none;fillColor=none;strokeColor=none;gradientColor=none;swimlaneLine=1;shadow=0;" parent="PUjruNRS7oLcWsMUaFnQ-1" vertex="1">
          <mxGeometry y="52" width="200" height="26" as="geometry" />
        </mxCell>
        <mxCell id="PUjruNRS7oLcWsMUaFnQ-4" value="&lt;span style=&quot;color: rgb(0, 0, 0); font-family: Helvetica; font-size: 12px; font-style: normal; font-variant-ligatures: normal; font-variant-caps: normal; font-weight: 400; letter-spacing: normal; orphans: 2; text-align: left; text-indent: 0px; text-transform: none; widows: 2; word-spacing: 0px; -webkit-text-stroke-width: 0px; background-color: rgb(251, 251, 251); text-decoration-thickness: initial; text-decoration-style: initial; text-decoration-color: initial; float: none; display: inline !important;&quot;&gt;- tela_gerente: TelaGerente&lt;/span&gt;" style="text;whiteSpace=wrap;html=1;verticalAlign=top;fillColor=none;strokeColor=none;strokeWidth=1;labelBackgroundColor=none;spacingTop=-1;spacingLeft=4;spacingRight=4;dashed=1;swimlaneLine=1;shadow=0;" parent="PUjruNRS7oLcWsMUaFnQ-1" vertex="1">
          <mxGeometry y="78" width="200" height="28" as="geometry" />
        </mxCell>
        <mxCell id="PUjruNRS7oLcWsMUaFnQ-5" value="" style="line;strokeWidth=1;fillColor=#e1d5e7;align=left;verticalAlign=middle;spacingTop=-1;spacingLeft=3;spacingRight=3;rotatable=0;labelPosition=right;points=[];portConstraint=eastwest;strokeColor=#9673a6;fontSize=16;" parent="PUjruNRS7oLcWsMUaFnQ-1" vertex="1">
          <mxGeometry y="106" width="200" height="8" as="geometry" />
        </mxCell>
        <mxCell id="PUjruNRS7oLcWsMUaFnQ-6" value="- __init__(control_filial)" style="text;align=left;verticalAlign=top;spacingLeft=4;spacingRight=4;overflow=hidden;rotatable=0;points=[[0,0.5],[1,0.5]];portConstraint=eastwest;labelBackgroundColor=none;fillColor=none;strokeColor=none;swimlaneLine=1;shadow=0;" parent="PUjruNRS7oLcWsMUaFnQ-1" vertex="1">
          <mxGeometry y="114" width="200" height="26" as="geometry" />
        </mxCell>
        <mxCell id="PUjruNRS7oLcWsMUaFnQ-7" value="- add_gerente()" style="text;align=left;verticalAlign=top;spacingLeft=4;spacingRight=4;overflow=hidden;rotatable=0;points=[[0,0.5],[1,0.5]];portConstraint=eastwest;labelBackgroundColor=none;fillColor=none;strokeColor=none;swimlaneLine=1;shadow=0;" parent="PUjruNRS7oLcWsMUaFnQ-1" vertex="1">
          <mxGeometry y="140" width="200" height="26" as="geometry" />
        </mxCell>
        <mxCell id="PUjruNRS7oLcWsMUaFnQ-8" value="- checagem_repeticao()" style="text;align=left;verticalAlign=top;spacingLeft=4;spacingRight=4;overflow=hidden;rotatable=0;points=[[0,0.5],[1,0.5]];portConstraint=eastwest;labelBackgroundColor=none;fillColor=none;strokeColor=none;swimlaneLine=1;shadow=0;" parent="PUjruNRS7oLcWsMUaFnQ-1" vertex="1">
          <mxGeometry y="166" width="200" height="26" as="geometry" />
        </mxCell>
        <mxCell id="PUjruNRS7oLcWsMUaFnQ-9" style="edgeStyle=orthogonalEdgeStyle;rounded=0;orthogonalLoop=1;jettySize=auto;html=1;entryX=1;entryY=0.75;entryDx=0;entryDy=0;fillColor=#e1d5e7;strokeColor=#9673a6;endSize=10;endArrow=open;endFill=0;" parent="WIyWlLk6GJQsqaUBKTNV-1" source="PUjruNRS7oLcWsMUaFnQ-10" target="PUjruNRS7oLcWsMUaFnQ-120" edge="1">
          <mxGeometry relative="1" as="geometry">
            <Array as="points">
              <mxPoint x="2281" y="590" />
            </Array>
          </mxGeometry>
        </mxCell>
        <mxCell id="PUjruNRS7oLcWsMUaFnQ-10" value="ControladorFunComum" style="swimlane;fontStyle=0;align=center;verticalAlign=top;childLayout=stackLayout;horizontal=1;startSize=26;horizontalStack=0;resizeParent=1;resizeLast=0;collapsible=1;marginBottom=0;rounded=1;shadow=0;strokeWidth=1;fillColor=#E5CCFF;strokeColor=#9673a6;labelBackgroundColor=none;fillStyle=auto;gradientDirection=west;swimlaneFillColor=#FFFFFF;swimlaneLine=1;gradientColor=#CC99FF;" parent="WIyWlLk6GJQsqaUBKTNV-1" vertex="1">
          <mxGeometry x="2191" y="202" width="180" height="270" as="geometry">
            <mxRectangle x="340" y="380" width="170" height="26" as="alternateBounds" />
          </mxGeometry>
        </mxCell>
        <mxCell id="PUjruNRS7oLcWsMUaFnQ-11" value="- func_comuns: []" style="text;align=left;verticalAlign=top;spacingLeft=4;spacingRight=4;overflow=hidden;rotatable=0;points=[[0,0.5],[1,0.5]];portConstraint=eastwest;labelBackgroundColor=none;fillColor=none;strokeColor=none;swimlaneLine=1;shadow=0;" parent="PUjruNRS7oLcWsMUaFnQ-10" vertex="1">
          <mxGeometry y="26" width="180" height="26" as="geometry" />
        </mxCell>
        <mxCell id="PUjruNRS7oLcWsMUaFnQ-12" value="&lt;span style=&quot;color: rgb(0, 0, 0); font-family: Helvetica; font-size: 12px; font-style: normal; font-variant-ligatures: normal; font-variant-caps: normal; font-weight: 400; letter-spacing: normal; orphans: 2; text-align: left; text-indent: 0px; text-transform: none; widows: 2; word-spacing: 0px; -webkit-text-stroke-width: 0px; background-color: rgb(251, 251, 251); text-decoration-thickness: initial; text-decoration-style: initial; text-decoration-color: initial; float: none; display: inline !important;&quot;&gt;- tela_func: TelaFunComum&lt;/span&gt;" style="text;whiteSpace=wrap;html=1;verticalAlign=top;fillColor=none;strokeColor=none;strokeWidth=1;labelBackgroundColor=none;spacingTop=-1;spacingLeft=4;spacingRight=4;dashed=1;swimlaneLine=1;shadow=0;" parent="PUjruNRS7oLcWsMUaFnQ-10" vertex="1">
          <mxGeometry y="52" width="180" height="28" as="geometry" />
        </mxCell>
        <mxCell id="PUjruNRS7oLcWsMUaFnQ-13" value="- control_filial: ControladorFilial" style="text;align=left;verticalAlign=top;spacingLeft=4;spacingRight=4;overflow=hidden;rotatable=0;points=[[0,0.5],[1,0.5]];portConstraint=eastwest;labelBackgroundColor=none;fillColor=none;strokeColor=none;gradientColor=none;swimlaneLine=1;shadow=0;" parent="PUjruNRS7oLcWsMUaFnQ-10" vertex="1">
          <mxGeometry y="80" width="180" height="26" as="geometry" />
        </mxCell>
        <mxCell id="PUjruNRS7oLcWsMUaFnQ-14" value="" style="line;strokeWidth=1;fillColor=#e1d5e7;align=left;verticalAlign=middle;spacingTop=-1;spacingLeft=3;spacingRight=3;rotatable=0;labelPosition=right;points=[];portConstraint=eastwest;strokeColor=#9673a6;fontSize=16;" parent="PUjruNRS7oLcWsMUaFnQ-10" vertex="1">
          <mxGeometry y="106" width="180" height="8" as="geometry" />
        </mxCell>
        <mxCell id="PUjruNRS7oLcWsMUaFnQ-15" value="- __init__()" style="text;align=left;verticalAlign=top;spacingLeft=4;spacingRight=4;overflow=hidden;rotatable=0;points=[[0,0.5],[1,0.5]];portConstraint=eastwest;labelBackgroundColor=none;fillColor=none;strokeColor=none;swimlaneLine=1;shadow=0;" parent="PUjruNRS7oLcWsMUaFnQ-10" vertex="1">
          <mxGeometry y="114" width="180" height="26" as="geometry" />
        </mxCell>
        <mxCell id="PUjruNRS7oLcWsMUaFnQ-16" value="- fun_comuns()" style="text;align=left;verticalAlign=top;spacingLeft=4;spacingRight=4;overflow=hidden;rotatable=0;points=[[0,0.5],[1,0.5]];portConstraint=eastwest;labelBackgroundColor=none;fillColor=none;strokeColor=none;swimlaneLine=1;shadow=0;" parent="PUjruNRS7oLcWsMUaFnQ-10" vertex="1">
          <mxGeometry y="140" width="180" height="26" as="geometry" />
        </mxCell>
        <mxCell id="PUjruNRS7oLcWsMUaFnQ-17" value="- fun_comuns_cargos()" style="text;align=left;verticalAlign=top;spacingLeft=4;spacingRight=4;overflow=hidden;rotatable=0;points=[[0,0.5],[1,0.5]];portConstraint=eastwest;labelBackgroundColor=none;fillColor=none;strokeColor=none;swimlaneLine=1;shadow=0;" parent="PUjruNRS7oLcWsMUaFnQ-10" vertex="1">
          <mxGeometry y="166" width="180" height="26" as="geometry" />
        </mxCell>
        <mxCell id="PUjruNRS7oLcWsMUaFnQ-18" value="- add_fun_comum()" style="text;align=left;verticalAlign=top;spacingLeft=4;spacingRight=4;overflow=hidden;rotatable=0;points=[[0,0.5],[1,0.5]];portConstraint=eastwest;labelBackgroundColor=none;fillColor=none;strokeColor=none;swimlaneLine=1;shadow=0;" parent="PUjruNRS7oLcWsMUaFnQ-10" vertex="1">
          <mxGeometry y="192" width="180" height="26" as="geometry" />
        </mxCell>
        <mxCell id="PUjruNRS7oLcWsMUaFnQ-19" value="- excluir_fun_comum()" style="text;align=left;verticalAlign=top;spacingLeft=4;spacingRight=4;overflow=hidden;rotatable=0;points=[[0,0.5],[1,0.5]];portConstraint=eastwest;labelBackgroundColor=none;fillColor=none;strokeColor=none;swimlaneLine=1;shadow=0;" parent="PUjruNRS7oLcWsMUaFnQ-10" vertex="1">
          <mxGeometry y="218" width="180" height="26" as="geometry" />
        </mxCell>
        <mxCell id="PUjruNRS7oLcWsMUaFnQ-20" value="- checagem_repeticao()" style="text;align=left;verticalAlign=top;spacingLeft=4;spacingRight=4;overflow=hidden;rotatable=0;points=[[0,0.5],[1,0.5]];portConstraint=eastwest;labelBackgroundColor=none;fillColor=none;strokeColor=none;swimlaneLine=1;shadow=0;" parent="PUjruNRS7oLcWsMUaFnQ-10" vertex="1">
          <mxGeometry y="244" width="180" height="26" as="geometry" />
        </mxCell>
        <mxCell id="PUjruNRS7oLcWsMUaFnQ-21" style="edgeStyle=orthogonalEdgeStyle;rounded=0;orthogonalLoop=1;jettySize=auto;html=1;endArrow=open;endFill=0;endSize=10;fillColor=#e1d5e7;strokeColor=#9673a6;entryX=0.436;entryY=-0.084;entryDx=0;entryDy=0;entryPerimeter=0;" parent="WIyWlLk6GJQsqaUBKTNV-1" source="PUjruNRS7oLcWsMUaFnQ-22" target="PUjruNRS7oLcWsMUaFnQ-123" edge="1">
          <mxGeometry relative="1" as="geometry">
            <mxPoint x="2300" y="860" as="targetPoint" />
            <Array as="points">
              <mxPoint x="2080" y="870" />
            </Array>
          </mxGeometry>
        </mxCell>
        <mxCell id="PUjruNRS7oLcWsMUaFnQ-22" value="ControladorContratos" style="swimlane;fontStyle=0;align=center;verticalAlign=top;childLayout=stackLayout;horizontal=1;startSize=26;horizontalStack=0;resizeParent=1;resizeLast=0;collapsible=1;marginBottom=0;rounded=1;shadow=0;strokeWidth=1;fillColor=#E5CCFF;strokeColor=#9673a6;labelBackgroundColor=none;fillStyle=auto;gradientDirection=west;swimlaneFillColor=#FFFFFF;swimlaneLine=1;gradientColor=#CC99FF;" parent="WIyWlLk6GJQsqaUBKTNV-1" vertex="1">
          <mxGeometry x="1717" y="670" width="240" height="426" as="geometry">
            <mxRectangle x="340" y="380" width="170" height="26" as="alternateBounds" />
          </mxGeometry>
        </mxCell>
        <mxCell id="PUjruNRS7oLcWsMUaFnQ-23" value="- contratos: []" style="text;align=left;verticalAlign=top;spacingLeft=4;spacingRight=4;overflow=hidden;rotatable=0;points=[[0,0.5],[1,0.5]];portConstraint=eastwest;labelBackgroundColor=none;fillColor=none;strokeColor=none;swimlaneLine=1;shadow=0;" parent="PUjruNRS7oLcWsMUaFnQ-22" vertex="1">
          <mxGeometry y="26" width="240" height="26" as="geometry" />
        </mxCell>
        <mxCell id="PUjruNRS7oLcWsMUaFnQ-24" value="&lt;span style=&quot;color: rgb(0, 0, 0); font-family: Helvetica; font-size: 12px; font-style: normal; font-variant-ligatures: normal; font-variant-caps: normal; font-weight: 400; letter-spacing: normal; orphans: 2; text-align: left; text-indent: 0px; text-transform: none; widows: 2; word-spacing: 0px; -webkit-text-stroke-width: 0px; background-color: rgb(251, 251, 251); text-decoration-thickness: initial; text-decoration-style: initial; text-decoration-color: initial; float: none; display: inline !important;&quot;&gt;- tela_contrato: TelaContrato&lt;/span&gt;" style="text;whiteSpace=wrap;html=1;verticalAlign=top;fillColor=none;strokeColor=none;strokeWidth=1;labelBackgroundColor=none;spacingTop=-1;spacingLeft=4;spacingRight=4;dashed=1;swimlaneLine=1;shadow=0;" parent="PUjruNRS7oLcWsMUaFnQ-22" vertex="1">
          <mxGeometry y="52" width="240" height="28" as="geometry" />
        </mxCell>
        <mxCell id="PUjruNRS7oLcWsMUaFnQ-25" value="- control_filial: ControladorFilial" style="text;align=left;verticalAlign=top;spacingLeft=4;spacingRight=4;overflow=hidden;rotatable=0;points=[[0,0.5],[1,0.5]];portConstraint=eastwest;labelBackgroundColor=none;fillColor=none;strokeColor=none;gradientColor=none;swimlaneLine=1;shadow=0;" parent="PUjruNRS7oLcWsMUaFnQ-22" vertex="1">
          <mxGeometry y="80" width="240" height="26" as="geometry" />
        </mxCell>
        <mxCell id="PUjruNRS7oLcWsMUaFnQ-26" value="- control_sistema" style="text;align=left;verticalAlign=top;spacingLeft=4;spacingRight=4;overflow=hidden;rotatable=0;points=[[0,0.5],[1,0.5]];portConstraint=eastwest;labelBackgroundColor=none;fillColor=none;strokeColor=none;gradientColor=none;swimlaneLine=1;shadow=0;" parent="PUjruNRS7oLcWsMUaFnQ-22" vertex="1">
          <mxGeometry y="106" width="240" height="26" as="geometry" />
        </mxCell>
        <mxCell id="PUjruNRS7oLcWsMUaFnQ-27" value="" style="line;strokeWidth=1;fillColor=#e1d5e7;align=left;verticalAlign=middle;spacingTop=-1;spacingLeft=3;spacingRight=3;rotatable=0;labelPosition=right;points=[];portConstraint=eastwest;strokeColor=#9673a6;fontSize=16;" parent="PUjruNRS7oLcWsMUaFnQ-22" vertex="1">
          <mxGeometry y="132" width="240" height="8" as="geometry" />
        </mxCell>
        <mxCell id="PUjruNRS7oLcWsMUaFnQ-28" value="- tela_contrato()" style="text;align=left;verticalAlign=top;spacingLeft=4;spacingRight=4;overflow=hidden;rotatable=0;points=[[0,0.5],[1,0.5]];portConstraint=eastwest;labelBackgroundColor=none;fillColor=none;strokeColor=none;swimlaneLine=1;shadow=0;" parent="PUjruNRS7oLcWsMUaFnQ-22" vertex="1">
          <mxGeometry y="140" width="240" height="26" as="geometry" />
        </mxCell>
        <mxCell id="PUjruNRS7oLcWsMUaFnQ-29" value="- contratos()" style="text;align=left;verticalAlign=top;spacingLeft=4;spacingRight=4;overflow=hidden;rotatable=0;points=[[0,0.5],[1,0.5]];portConstraint=eastwest;labelBackgroundColor=none;fillColor=none;strokeColor=none;swimlaneLine=1;shadow=0;" parent="PUjruNRS7oLcWsMUaFnQ-22" vertex="1">
          <mxGeometry y="166" width="240" height="26" as="geometry" />
        </mxCell>
        <mxCell id="PUjruNRS7oLcWsMUaFnQ-30" value="- inicializa_sistema(controlador_de_retorno, objeto)" style="text;align=left;verticalAlign=top;spacingLeft=4;spacingRight=4;overflow=hidden;rotatable=0;points=[[0,0.5],[1,0.5]];portConstraint=eastwest;labelBackgroundColor=none;fillColor=none;strokeColor=none;swimlaneLine=1;shadow=0;" parent="PUjruNRS7oLcWsMUaFnQ-22" vertex="1">
          <mxGeometry y="192" width="240" height="26" as="geometry" />
        </mxCell>
        <mxCell id="PUjruNRS7oLcWsMUaFnQ-31" value="- incluir_contrato(dados_contrato)" style="text;align=left;verticalAlign=top;spacingLeft=4;spacingRight=4;overflow=hidden;rotatable=0;points=[[0,0.5],[1,0.5]];portConstraint=eastwest;labelBackgroundColor=none;strokeColor=none;fillColor=none;swimlaneLine=1;shadow=0;" parent="PUjruNRS7oLcWsMUaFnQ-22" vertex="1">
          <mxGeometry y="218" width="240" height="26" as="geometry" />
        </mxCell>
        <mxCell id="PUjruNRS7oLcWsMUaFnQ-32" value="- modificar_contrato()" style="text;align=left;verticalAlign=top;spacingLeft=4;spacingRight=4;overflow=hidden;rotatable=0;points=[[0,0.5],[1,0.5]];portConstraint=eastwest;labelBackgroundColor=none;fillColor=none;strokeColor=none;swimlaneLine=1;shadow=0;" parent="PUjruNRS7oLcWsMUaFnQ-22" vertex="1">
          <mxGeometry y="244" width="240" height="26" as="geometry" />
        </mxCell>
        <mxCell id="PUjruNRS7oLcWsMUaFnQ-33" value="- demitir()" style="text;align=left;verticalAlign=top;spacingLeft=4;spacingRight=4;overflow=hidden;rotatable=0;points=[[0,0.5],[1,0.5]];portConstraint=eastwest;labelBackgroundColor=none;fillColor=none;strokeColor=none;swimlaneLine=1;shadow=0;" parent="PUjruNRS7oLcWsMUaFnQ-22" vertex="1">
          <mxGeometry y="270" width="240" height="26" as="geometry" />
        </mxCell>
        <mxCell id="PUjruNRS7oLcWsMUaFnQ-34" value="- listar_contratos()" style="text;align=left;verticalAlign=top;spacingLeft=4;spacingRight=4;overflow=hidden;rotatable=0;points=[[0,0.5],[1,0.5]];portConstraint=eastwest;labelBackgroundColor=none;fillColor=none;strokeColor=none;swimlaneLine=1;shadow=0;" parent="PUjruNRS7oLcWsMUaFnQ-22" vertex="1">
          <mxGeometry y="296" width="240" height="26" as="geometry" />
        </mxCell>
        <mxCell id="PUjruNRS7oLcWsMUaFnQ-35" value="- excluir_contrato()" style="text;align=left;verticalAlign=top;spacingLeft=4;spacingRight=4;overflow=hidden;rotatable=0;points=[[0,0.5],[1,0.5]];portConstraint=eastwest;labelBackgroundColor=none;fillColor=none;strokeColor=none;swimlaneLine=1;shadow=0;" parent="PUjruNRS7oLcWsMUaFnQ-22" vertex="1">
          <mxGeometry y="322" width="240" height="26" as="geometry" />
        </mxCell>
        <mxCell id="PUjruNRS7oLcWsMUaFnQ-36" value="- pega_contrato_por_cpf_auto(cpf)" style="text;align=left;verticalAlign=top;spacingLeft=4;spacingRight=4;overflow=hidden;rotatable=0;points=[[0,0.5],[1,0.5]];portConstraint=eastwest;labelBackgroundColor=none;fillColor=none;strokeColor=none;swimlaneLine=1;shadow=0;" parent="PUjruNRS7oLcWsMUaFnQ-22" vertex="1">
          <mxGeometry y="348" width="240" height="26" as="geometry" />
        </mxCell>
        <mxCell id="PUjruNRS7oLcWsMUaFnQ-37" value="- relatorio_contrato_por_data()" style="text;align=left;verticalAlign=top;spacingLeft=4;spacingRight=4;overflow=hidden;rotatable=0;points=[[0,0.5],[1,0.5]];portConstraint=eastwest;labelBackgroundColor=none;fillColor=none;strokeColor=none;swimlaneLine=1;shadow=0;" parent="PUjruNRS7oLcWsMUaFnQ-22" vertex="1">
          <mxGeometry y="374" width="240" height="26" as="geometry" />
        </mxCell>
        <mxCell id="PUjruNRS7oLcWsMUaFnQ-38" value="- retornar()" style="text;align=left;verticalAlign=top;spacingLeft=4;spacingRight=4;overflow=hidden;rotatable=0;points=[[0,0.5],[1,0.5]];portConstraint=eastwest;labelBackgroundColor=none;fillColor=none;strokeColor=none;swimlaneLine=1;shadow=0;" parent="PUjruNRS7oLcWsMUaFnQ-22" vertex="1">
          <mxGeometry y="400" width="240" height="26" as="geometry" />
        </mxCell>
        <mxCell id="PUjruNRS7oLcWsMUaFnQ-39" style="edgeStyle=orthogonalEdgeStyle;rounded=1;orthogonalLoop=1;jettySize=auto;html=1;entryX=1;entryY=0.5;entryDx=0;entryDy=0;endArrow=open;endFill=0;endSize=12;fillColor=#e1d5e7;strokeColor=#9933FF;swimlaneLine=1;shadow=0;" parent="WIyWlLk6GJQsqaUBKTNV-1" source="PUjruNRS7oLcWsMUaFnQ-41" target="PUjruNRS7oLcWsMUaFnQ-72" edge="1">
          <mxGeometry relative="1" as="geometry" />
        </mxCell>
        <mxCell id="PUjruNRS7oLcWsMUaFnQ-40" style="edgeStyle=orthogonalEdgeStyle;rounded=0;orthogonalLoop=1;jettySize=auto;html=1;entryX=0;entryY=0.5;entryDx=0;entryDy=0;endSize=10;endArrow=open;endFill=0;fillColor=#e1d5e7;strokeColor=#9673a6;" parent="WIyWlLk6GJQsqaUBKTNV-1" source="PUjruNRS7oLcWsMUaFnQ-41" target="PUjruNRS7oLcWsMUaFnQ-3" edge="1">
          <mxGeometry relative="1" as="geometry" />
        </mxCell>
        <mxCell id="PUjruNRS7oLcWsMUaFnQ-41" value="&lt;span style=&quot;font-weight: normal;&quot;&gt;ControladorSistema&lt;/span&gt;" style="swimlane;fontStyle=0;align=center;verticalAlign=top;childLayout=stackLayout;horizontal=1;startSize=26;horizontalStack=0;resizeParent=1;resizeParentMax=0;resizeLast=0;collapsible=1;marginBottom=0;whiteSpace=wrap;html=1;rounded=1;shadow=0;strokeWidth=1;fillColor=#E5CCFF;strokeColor=#9673a6;fillStyle=auto;labelBackgroundColor=none;swimlaneFillColor=#FFFFFF;gradientDirection=west;swimlaneLine=1;gradientColor=#CC99FF;" parent="WIyWlLk6GJQsqaUBKTNV-1" vertex="1">
          <mxGeometry x="1850" y="-221" width="260" height="632" as="geometry" />
        </mxCell>
        <mxCell id="PUjruNRS7oLcWsMUaFnQ-42" value="- filiais: []" style="text;strokeColor=none;fillColor=none;align=left;verticalAlign=top;spacingLeft=4;spacingRight=4;overflow=hidden;rotatable=0;points=[[0,0.5],[1,0.5]];portConstraint=eastwest;whiteSpace=wrap;html=1;labelBackgroundColor=none;gradientColor=none;swimlaneLine=1;shadow=0;" parent="PUjruNRS7oLcWsMUaFnQ-41" vertex="1">
          <mxGeometry y="26" width="260" height="26" as="geometry" />
        </mxCell>
        <mxCell id="PUjruNRS7oLcWsMUaFnQ-43" value="&lt;span style=&quot;color: rgb(0, 0, 0); font-family: Helvetica; font-size: 12px; font-style: normal; font-variant-ligatures: normal; font-variant-caps: normal; font-weight: 400; letter-spacing: normal; orphans: 2; text-align: left; text-indent: 0px; text-transform: none; widows: 2; word-spacing: 0px; -webkit-text-stroke-width: 0px; background-color: rgb(251, 251, 251); text-decoration-thickness: initial; text-decoration-style: initial; text-decoration-color: initial; float: none; display: inline !important;&quot;&gt;- tela_filial: TelaSistema&lt;/span&gt;" style="text;whiteSpace=wrap;html=1;verticalAlign=top;fillColor=none;strokeColor=none;strokeWidth=1;labelBackgroundColor=none;spacingTop=-1;spacingLeft=4;spacingRight=4;dashed=1;gradientColor=none;swimlaneLine=1;shadow=0;" parent="PUjruNRS7oLcWsMUaFnQ-41" vertex="1">
          <mxGeometry y="52" width="260" height="28" as="geometry" />
        </mxCell>
        <mxCell id="PUjruNRS7oLcWsMUaFnQ-44" value="- control_filial: ControladorFilial" style="text;align=left;verticalAlign=top;spacingLeft=4;spacingRight=4;overflow=hidden;rotatable=0;points=[[0,0.5],[1,0.5]];portConstraint=eastwest;labelBackgroundColor=none;fillColor=none;strokeColor=none;gradientColor=none;swimlaneLine=1;shadow=0;" parent="PUjruNRS7oLcWsMUaFnQ-41" vertex="1">
          <mxGeometry y="80" width="260" height="26" as="geometry" />
        </mxCell>
        <mxCell id="PUjruNRS7oLcWsMUaFnQ-45" value="- control_contra: ControladorContrato" style="text;align=left;verticalAlign=top;spacingLeft=4;spacingRight=4;overflow=hidden;rotatable=0;points=[[0,0.5],[1,0.5]];portConstraint=eastwest;labelBackgroundColor=none;fillColor=none;strokeColor=none;swimlaneLine=1;shadow=0;" parent="PUjruNRS7oLcWsMUaFnQ-41" vertex="1">
          <mxGeometry y="106" width="260" height="26" as="geometry" />
        </mxCell>
        <mxCell id="PUjruNRS7oLcWsMUaFnQ-46" value="- control_gerente: ControladorGerente" style="text;align=left;verticalAlign=top;spacingLeft=4;spacingRight=4;overflow=hidden;rotatable=0;points=[[0,0.5],[1,0.5]];portConstraint=eastwest;labelBackgroundColor=none;fillColor=none;strokeColor=none;swimlaneLine=1;shadow=0;" parent="PUjruNRS7oLcWsMUaFnQ-41" vertex="1">
          <mxGeometry y="132" width="260" height="26" as="geometry" />
        </mxCell>
        <mxCell id="PUjruNRS7oLcWsMUaFnQ-47" value="- control_func: ControladorFuncComum" style="text;align=left;verticalAlign=top;spacingLeft=4;spacingRight=4;overflow=hidden;rotatable=0;points=[[0,0.5],[1,0.5]];portConstraint=eastwest;labelBackgroundColor=none;fillColor=none;strokeColor=none;swimlaneLine=1;shadow=0;" parent="PUjruNRS7oLcWsMUaFnQ-41" vertex="1">
          <mxGeometry y="158" width="260" height="26" as="geometry" />
        </mxCell>
        <mxCell id="PUjruNRS7oLcWsMUaFnQ-48" value="" style="line;strokeWidth=1;fillColor=none;align=left;verticalAlign=middle;spacingTop=-1;spacingLeft=3;spacingRight=3;rotatable=0;labelPosition=right;points=[];portConstraint=eastwest;strokeColor=none;dashed=1;labelBackgroundColor=none;gradientColor=none;swimlaneLine=1;shadow=0;" parent="PUjruNRS7oLcWsMUaFnQ-41" vertex="1">
          <mxGeometry y="184" width="260" height="8" as="geometry" />
        </mxCell>
        <mxCell id="PUjruNRS7oLcWsMUaFnQ-49" value="- control_func: ControladorCargo" style="text;align=left;verticalAlign=top;spacingLeft=4;spacingRight=4;overflow=hidden;rotatable=0;points=[[0,0.5],[1,0.5]];portConstraint=eastwest;labelBackgroundColor=none;fillColor=none;strokeColor=none;swimlaneLine=1;shadow=0;" parent="PUjruNRS7oLcWsMUaFnQ-41" vertex="1">
          <mxGeometry y="192" width="260" height="26" as="geometry" />
        </mxCell>
        <mxCell id="PUjruNRS7oLcWsMUaFnQ-50" value="" style="line;strokeWidth=1;fillColor=#e1d5e7;align=left;verticalAlign=middle;spacingTop=-1;spacingLeft=3;spacingRight=3;rotatable=0;labelPosition=right;points=[];portConstraint=eastwest;strokeColor=#9673a6;fontSize=16;" parent="PUjruNRS7oLcWsMUaFnQ-41" vertex="1">
          <mxGeometry y="218" width="260" height="8" as="geometry" />
        </mxCell>
        <mxCell id="PUjruNRS7oLcWsMUaFnQ-51" value="- __init__()" style="text;align=left;verticalAlign=top;spacingLeft=4;spacingRight=4;overflow=hidden;rotatable=0;points=[[0,0.5],[1,0.5]];portConstraint=eastwest;labelBackgroundColor=none;fillColor=none;strokeColor=none;swimlaneLine=1;shadow=0;" parent="PUjruNRS7oLcWsMUaFnQ-41" vertex="1">
          <mxGeometry y="226" width="260" height="26" as="geometry" />
        </mxCell>
        <mxCell id="PUjruNRS7oLcWsMUaFnQ-52" value="- controlador_contrato()" style="text;align=left;verticalAlign=top;spacingLeft=4;spacingRight=4;overflow=hidden;rotatable=0;points=[[0,0.5],[1,0.5]];portConstraint=eastwest;labelBackgroundColor=none;fillColor=none;strokeColor=none;gradientColor=none;swimlaneLine=1;shadow=0;" parent="PUjruNRS7oLcWsMUaFnQ-41" vertex="1">
          <mxGeometry y="252" width="260" height="26" as="geometry" />
        </mxCell>
        <mxCell id="PUjruNRS7oLcWsMUaFnQ-53" value="- controlador_gerente()" style="text;align=left;verticalAlign=top;spacingLeft=4;spacingRight=4;overflow=hidden;rotatable=0;points=[[0,0.5],[1,0.5]];portConstraint=eastwest;labelBackgroundColor=none;fillColor=none;strokeColor=none;gradientColor=none;swimlaneLine=1;shadow=0;" parent="PUjruNRS7oLcWsMUaFnQ-41" vertex="1">
          <mxGeometry y="278" width="260" height="26" as="geometry" />
        </mxCell>
        <mxCell id="PUjruNRS7oLcWsMUaFnQ-54" value="- controlador_fun_comum()" style="text;align=left;verticalAlign=top;spacingLeft=4;spacingRight=4;overflow=hidden;rotatable=0;points=[[0,0.5],[1,0.5]];portConstraint=eastwest;labelBackgroundColor=none;fillColor=none;strokeColor=none;gradientColor=none;swimlaneLine=1;shadow=0;" parent="PUjruNRS7oLcWsMUaFnQ-41" vertex="1">
          <mxGeometry y="304" width="260" height="26" as="geometry" />
        </mxCell>
        <mxCell id="PUjruNRS7oLcWsMUaFnQ-55" value="- controlador_cargo()" style="text;align=left;verticalAlign=top;spacingLeft=4;spacingRight=4;overflow=hidden;rotatable=0;points=[[0,0.5],[1,0.5]];portConstraint=eastwest;labelBackgroundColor=none;fillColor=none;strokeColor=none;gradientColor=none;swimlaneLine=1;shadow=0;" parent="PUjruNRS7oLcWsMUaFnQ-41" vertex="1">
          <mxGeometry y="330" width="260" height="26" as="geometry" />
        </mxCell>
        <mxCell id="PUjruNRS7oLcWsMUaFnQ-56" value="- inicializa_sistema()" style="text;align=left;verticalAlign=top;spacingLeft=4;spacingRight=4;overflow=hidden;rotatable=0;points=[[0,0.5],[1,0.5]];portConstraint=eastwest;labelBackgroundColor=none;fillColor=none;strokeColor=none;gradientColor=none;swimlaneLine=1;shadow=0;" parent="PUjruNRS7oLcWsMUaFnQ-41" vertex="1">
          <mxGeometry y="356" width="260" height="26" as="geometry" />
        </mxCell>
        <mxCell id="PUjruNRS7oLcWsMUaFnQ-57" value="- adicionar_filial&lt;span style=&quot;background-color: initial;&quot;&gt;()&lt;/span&gt;" style="text;strokeColor=none;fillColor=none;align=left;verticalAlign=top;spacingLeft=4;spacingRight=4;overflow=hidden;rotatable=0;points=[[0,0.5],[1,0.5]];portConstraint=eastwest;whiteSpace=wrap;html=1;labelBackgroundColor=none;gradientColor=none;swimlaneLine=1;shadow=0;" parent="PUjruNRS7oLcWsMUaFnQ-41" vertex="1">
          <mxGeometry y="382" width="260" height="30" as="geometry" />
        </mxCell>
        <mxCell id="PUjruNRS7oLcWsMUaFnQ-58" value="- excluir_filial()" style="text;strokeColor=none;fillColor=none;align=left;verticalAlign=top;spacingLeft=4;spacingRight=4;overflow=hidden;rotatable=0;points=[[0,0.5],[1,0.5]];portConstraint=eastwest;whiteSpace=wrap;html=1;labelBackgroundColor=none;gradientColor=none;swimlaneLine=1;shadow=0;" parent="PUjruNRS7oLcWsMUaFnQ-41" vertex="1">
          <mxGeometry y="412" width="260" height="30" as="geometry" />
        </mxCell>
        <mxCell id="PUjruNRS7oLcWsMUaFnQ-59" value="-&amp;nbsp;modificar_filial&lt;span style=&quot;background-color: initial;&quot;&gt;()&lt;/span&gt;" style="text;strokeColor=none;fillColor=none;align=left;verticalAlign=top;spacingLeft=4;spacingRight=4;overflow=hidden;rotatable=0;points=[[0,0.5],[1,0.5]];portConstraint=eastwest;whiteSpace=wrap;html=1;labelBackgroundColor=none;gradientColor=none;swimlaneLine=1;shadow=0;" parent="PUjruNRS7oLcWsMUaFnQ-41" vertex="1">
          <mxGeometry y="442" width="260" height="30" as="geometry" />
        </mxCell>
        <mxCell id="PUjruNRS7oLcWsMUaFnQ-60" value="-&amp;nbsp;listar&lt;span style=&quot;background-color: initial;&quot;&gt;()&lt;/span&gt;" style="text;strokeColor=none;fillColor=none;align=left;verticalAlign=top;spacingLeft=4;spacingRight=4;overflow=hidden;rotatable=0;points=[[0,0.5],[1,0.5]];portConstraint=eastwest;whiteSpace=wrap;html=1;labelBackgroundColor=none;gradientColor=none;swimlaneLine=1;shadow=0;" parent="PUjruNRS7oLcWsMUaFnQ-41" vertex="1">
          <mxGeometry y="472" width="260" height="30" as="geometry" />
        </mxCell>
        <mxCell id="PUjruNRS7oLcWsMUaFnQ-61" value="- modificar_cargos()" style="text;align=left;verticalAlign=top;spacingLeft=4;spacingRight=4;overflow=hidden;rotatable=0;points=[[0,0.5],[1,0.5]];portConstraint=eastwest;labelBackgroundColor=none;fillColor=none;strokeColor=none;gradientColor=none;swimlaneLine=1;shadow=0;" parent="PUjruNRS7oLcWsMUaFnQ-41" vertex="1">
          <mxGeometry y="502" width="260" height="26" as="geometry" />
        </mxCell>
        <mxCell id="PUjruNRS7oLcWsMUaFnQ-62" value="- checagem_repeticao_cep()" style="text;align=left;verticalAlign=top;spacingLeft=4;spacingRight=4;overflow=hidden;rotatable=0;points=[[0,0.5],[1,0.5]];portConstraint=eastwest;labelBackgroundColor=none;fillColor=none;strokeColor=none;gradientColor=none;swimlaneLine=1;shadow=0;" parent="PUjruNRS7oLcWsMUaFnQ-41" vertex="1">
          <mxGeometry y="528" width="260" height="26" as="geometry" />
        </mxCell>
        <mxCell id="PUjruNRS7oLcWsMUaFnQ-63" value="- checagem_repeticao_cidade()" style="text;align=left;verticalAlign=top;spacingLeft=4;spacingRight=4;overflow=hidden;rotatable=0;points=[[0,0.5],[1,0.5]];portConstraint=eastwest;labelBackgroundColor=none;fillColor=none;strokeColor=none;gradientColor=none;swimlaneLine=1;shadow=0;" parent="PUjruNRS7oLcWsMUaFnQ-41" vertex="1">
          <mxGeometry y="554" width="260" height="26" as="geometry" />
        </mxCell>
        <mxCell id="PUjruNRS7oLcWsMUaFnQ-64" value="- busca_por_cep()" style="text;align=left;verticalAlign=top;spacingLeft=4;spacingRight=4;overflow=hidden;rotatable=0;points=[[0,0.5],[1,0.5]];portConstraint=eastwest;labelBackgroundColor=none;fillColor=none;strokeColor=none;gradientColor=none;swimlaneLine=1;shadow=0;" parent="PUjruNRS7oLcWsMUaFnQ-41" vertex="1">
          <mxGeometry y="580" width="260" height="26" as="geometry" />
        </mxCell>
        <mxCell id="PUjruNRS7oLcWsMUaFnQ-65" value="- sair()" style="text;align=left;verticalAlign=top;spacingLeft=4;spacingRight=4;overflow=hidden;rotatable=0;points=[[0,0.5],[1,0.5]];portConstraint=eastwest;rounded=0;shadow=0;html=0;labelBackgroundColor=none;fillColor=none;strokeColor=none;gradientColor=none;swimlaneLine=1;" parent="PUjruNRS7oLcWsMUaFnQ-41" vertex="1">
          <mxGeometry y="606" width="260" height="26" as="geometry" />
        </mxCell>
        <mxCell id="PUjruNRS7oLcWsMUaFnQ-66" style="edgeStyle=orthogonalEdgeStyle;rounded=0;orthogonalLoop=1;jettySize=auto;html=1;entryX=0.5;entryY=1;entryDx=0;entryDy=0;endSize=10;endArrow=open;endFill=0;fillColor=#e1d5e7;strokeColor=#9673a6;" parent="WIyWlLk6GJQsqaUBKTNV-1" source="PUjruNRS7oLcWsMUaFnQ-69" target="PUjruNRS7oLcWsMUaFnQ-150" edge="1">
          <mxGeometry relative="1" as="geometry" />
        </mxCell>
        <mxCell id="PUjruNRS7oLcWsMUaFnQ-67" style="edgeStyle=orthogonalEdgeStyle;rounded=0;orthogonalLoop=1;jettySize=auto;html=1;endSize=10;endArrow=open;endFill=0;exitX=0;exitY=0.5;exitDx=0;exitDy=0;fillColor=#e1d5e7;strokeColor=#9673a6;" parent="WIyWlLk6GJQsqaUBKTNV-1" source="PUjruNRS7oLcWsMUaFnQ-76" edge="1">
          <mxGeometry relative="1" as="geometry">
            <mxPoint x="1340" y="-20" as="targetPoint" />
            <Array as="points">
              <mxPoint x="1400" y="137" />
              <mxPoint x="1400" y="-20" />
            </Array>
          </mxGeometry>
        </mxCell>
        <mxCell id="PUjruNRS7oLcWsMUaFnQ-68" style="edgeStyle=orthogonalEdgeStyle;rounded=0;orthogonalLoop=1;jettySize=auto;html=1;endArrow=open;endFill=0;strokeWidth=1;endSize=10;fillColor=#e1d5e7;strokeColor=#9673a6;entryX=1;entryY=0.5;entryDx=0;entryDy=0;" parent="WIyWlLk6GJQsqaUBKTNV-1" source="PUjruNRS7oLcWsMUaFnQ-69" target="PUjruNRS7oLcWsMUaFnQ-188" edge="1">
          <mxGeometry relative="1" as="geometry">
            <mxPoint x="1330" y="380.00000000000045" as="targetPoint" />
          </mxGeometry>
        </mxCell>
        <mxCell id="PUjruNRS7oLcWsMUaFnQ-69" value="&lt;span style=&quot;font-weight: normal;&quot;&gt;ControladorFilial&lt;/span&gt;" style="swimlane;fontStyle=0;align=center;verticalAlign=top;childLayout=stackLayout;horizontal=1;startSize=26;horizontalStack=0;resizeParent=1;resizeParentMax=0;resizeLast=0;collapsible=1;marginBottom=0;whiteSpace=wrap;html=1;rounded=1;shadow=0;strokeWidth=1;fillColor=#E5CCFF;strokeColor=#9673a6;fillStyle=auto;labelBackgroundColor=none;swimlaneFillColor=#FFFFFF;gradientDirection=west;swimlaneLine=1;glass=0;gradientColor=#CC99FF;arcSize=21;" parent="WIyWlLk6GJQsqaUBKTNV-1" vertex="1">
          <mxGeometry x="1460" y="-60" width="271" height="494" as="geometry" />
        </mxCell>
        <mxCell id="PUjruNRS7oLcWsMUaFnQ-70" value="- cep: []" style="text;strokeColor=none;fillColor=none;align=left;verticalAlign=top;spacingLeft=4;spacingRight=4;overflow=hidden;rotatable=0;points=[[0,0.5],[1,0.5]];portConstraint=eastwest;whiteSpace=wrap;html=1;labelBackgroundColor=none;swimlaneLine=1;shadow=0;" parent="PUjruNRS7oLcWsMUaFnQ-69" vertex="1">
          <mxGeometry y="26" width="271" height="26" as="geometry" />
        </mxCell>
        <mxCell id="PUjruNRS7oLcWsMUaFnQ-71" value="&lt;span style=&quot;color: rgb(0, 0, 0); font-family: Helvetica; font-size: 12px; font-style: normal; font-variant-ligatures: normal; font-variant-caps: normal; font-weight: 400; letter-spacing: normal; orphans: 2; text-align: left; text-indent: 0px; text-transform: none; widows: 2; word-spacing: 0px; -webkit-text-stroke-width: 0px; background-color: rgb(251, 251, 251); text-decoration-thickness: initial; text-decoration-style: initial; text-decoration-color: initial; float: none; display: inline !important;&quot;&gt;- tela_filial: TelaFilial&lt;/span&gt;" style="text;whiteSpace=wrap;html=1;verticalAlign=top;fillColor=none;strokeColor=none;strokeWidth=1;labelBackgroundColor=none;spacingTop=-1;spacingLeft=4;spacingRight=4;dashed=1;swimlaneLine=1;shadow=0;" parent="PUjruNRS7oLcWsMUaFnQ-69" vertex="1">
          <mxGeometry y="52" width="271" height="28" as="geometry" />
        </mxCell>
        <mxCell id="PUjruNRS7oLcWsMUaFnQ-72" value="- control_contra: ControladorSistema" style="text;align=left;verticalAlign=top;spacingLeft=4;spacingRight=4;overflow=hidden;rotatable=0;points=[[0,0.5],[1,0.5]];portConstraint=eastwest;labelBackgroundColor=none;fillColor=none;strokeColor=none;swimlaneLine=1;shadow=0;" parent="PUjruNRS7oLcWsMUaFnQ-69" vertex="1">
          <mxGeometry y="80" width="271" height="26" as="geometry" />
        </mxCell>
        <mxCell id="PUjruNRS7oLcWsMUaFnQ-73" value="- control_contra: ControladorContrato" style="text;align=left;verticalAlign=top;spacingLeft=4;spacingRight=4;overflow=hidden;rotatable=0;points=[[0,0.5],[1,0.5]];portConstraint=eastwest;labelBackgroundColor=none;fillColor=none;strokeColor=none;swimlaneLine=1;shadow=0;" parent="PUjruNRS7oLcWsMUaFnQ-69" vertex="1">
          <mxGeometry y="106" width="271" height="26" as="geometry" />
        </mxCell>
        <mxCell id="PUjruNRS7oLcWsMUaFnQ-74" value="- control_transf: ControladorTransf" style="text;align=left;verticalAlign=top;spacingLeft=4;spacingRight=4;overflow=hidden;rotatable=0;points=[[0,0.5],[1,0.5]];portConstraint=eastwest;labelBackgroundColor=none;fillColor=none;strokeColor=none;swimlaneLine=1;shadow=0;" parent="PUjruNRS7oLcWsMUaFnQ-69" vertex="1">
          <mxGeometry y="132" width="271" height="26" as="geometry" />
        </mxCell>
        <mxCell id="PUjruNRS7oLcWsMUaFnQ-75" value="- control_gerente: ControladorGerente" style="text;align=left;verticalAlign=top;spacingLeft=4;spacingRight=4;overflow=hidden;rotatable=0;points=[[0,0.5],[1,0.5]];portConstraint=eastwest;labelBackgroundColor=none;fillColor=none;strokeColor=none;swimlaneLine=1;shadow=0;" parent="PUjruNRS7oLcWsMUaFnQ-69" vertex="1">
          <mxGeometry y="158" width="271" height="26" as="geometry" />
        </mxCell>
        <mxCell id="PUjruNRS7oLcWsMUaFnQ-76" value="- control_mud_cargo: ControladorMudCargo" style="text;align=left;verticalAlign=top;spacingLeft=4;spacingRight=4;overflow=hidden;rotatable=0;points=[[0,0.5],[1,0.5]];portConstraint=eastwest;labelBackgroundColor=none;fillColor=none;strokeColor=none;swimlaneLine=1;shadow=0;" parent="PUjruNRS7oLcWsMUaFnQ-69" vertex="1">
          <mxGeometry y="184" width="271" height="26" as="geometry" />
        </mxCell>
        <mxCell id="PUjruNRS7oLcWsMUaFnQ-77" value="" style="line;strokeWidth=1;fillColor=#e1d5e7;align=left;verticalAlign=middle;spacingTop=-1;spacingLeft=3;spacingRight=3;rotatable=0;labelPosition=right;points=[];portConstraint=eastwest;strokeColor=#9673a6;fontSize=16;" parent="PUjruNRS7oLcWsMUaFnQ-69" vertex="1">
          <mxGeometry y="210" width="271" height="8" as="geometry" />
        </mxCell>
        <mxCell id="PUjruNRS7oLcWsMUaFnQ-78" value="- __init__(controlador_sistema, filial: Filial)" style="text;align=left;verticalAlign=top;spacingLeft=4;spacingRight=4;overflow=hidden;rotatable=0;points=[[0,0.5],[1,0.5]];portConstraint=eastwest;labelBackgroundColor=none;fillColor=none;strokeColor=none;swimlaneLine=1;shadow=0;" parent="PUjruNRS7oLcWsMUaFnQ-69" vertex="1">
          <mxGeometry y="218" width="271" height="26" as="geometry" />
        </mxCell>
        <mxCell id="PUjruNRS7oLcWsMUaFnQ-79" value="- filial()" style="text;align=left;verticalAlign=top;spacingLeft=4;spacingRight=4;overflow=hidden;rotatable=0;points=[[0,0.5],[1,0.5]];portConstraint=eastwest;labelBackgroundColor=none;fillColor=none;strokeColor=none;swimlaneLine=1;shadow=0;" parent="PUjruNRS7oLcWsMUaFnQ-69" vertex="1">
          <mxGeometry y="244" width="271" height="26" as="geometry" />
        </mxCell>
        <mxCell id="PUjruNRS7oLcWsMUaFnQ-80" value="- inicializa_sistema()" style="text;align=left;verticalAlign=top;spacingLeft=4;spacingRight=4;overflow=hidden;rotatable=0;points=[[0,0.5],[1,0.5]];portConstraint=eastwest;labelBackgroundColor=none;fillColor=none;strokeColor=none;swimlaneLine=1;shadow=0;" parent="PUjruNRS7oLcWsMUaFnQ-69" vertex="1">
          <mxGeometry y="270" width="271" height="26" as="geometry" />
        </mxCell>
        <mxCell id="PUjruNRS7oLcWsMUaFnQ-81" value="- controlador_contrato()" style="text;align=left;verticalAlign=top;spacingLeft=4;spacingRight=4;overflow=hidden;rotatable=0;points=[[0,0.5],[1,0.5]];portConstraint=eastwest;labelBackgroundColor=none;fillColor=none;strokeColor=none;swimlaneLine=1;shadow=0;" parent="PUjruNRS7oLcWsMUaFnQ-69" vertex="1">
          <mxGeometry y="296" width="271" height="26" as="geometry" />
        </mxCell>
        <mxCell id="PUjruNRS7oLcWsMUaFnQ-82" value="- controlador_gerente_esp()" style="text;strokeColor=none;fillColor=none;align=left;verticalAlign=top;spacingLeft=4;spacingRight=4;overflow=hidden;rotatable=0;points=[[0,0.5],[1,0.5]];portConstraint=eastwest;whiteSpace=wrap;html=1;labelBackgroundColor=none;swimlaneLine=1;shadow=0;" parent="PUjruNRS7oLcWsMUaFnQ-69" vertex="1">
          <mxGeometry y="322" width="271" height="30" as="geometry" />
        </mxCell>
        <mxCell id="PUjruNRS7oLcWsMUaFnQ-83" value="- controlador_funcomum_esp()" style="text;strokeColor=none;fillColor=none;align=left;verticalAlign=top;spacingLeft=4;spacingRight=4;overflow=hidden;rotatable=0;points=[[0,0.5],[1,0.5]];portConstraint=eastwest;whiteSpace=wrap;html=1;labelBackgroundColor=none;swimlaneLine=1;shadow=0;" parent="PUjruNRS7oLcWsMUaFnQ-69" vertex="1">
          <mxGeometry y="352" width="271" height="30" as="geometry" />
        </mxCell>
        <mxCell id="PUjruNRS7oLcWsMUaFnQ-84" value="-&amp;nbsp;modificar_dados&lt;span style=&quot;background-color: initial;&quot;&gt;()&lt;/span&gt;" style="text;strokeColor=none;fillColor=none;align=left;verticalAlign=top;spacingLeft=4;spacingRight=4;overflow=hidden;rotatable=0;points=[[0,0.5],[1,0.5]];portConstraint=eastwest;whiteSpace=wrap;html=1;labelBackgroundColor=none;swimlaneLine=1;shadow=0;" parent="PUjruNRS7oLcWsMUaFnQ-69" vertex="1">
          <mxGeometry y="382" width="271" height="30" as="geometry" />
        </mxCell>
        <mxCell id="PUjruNRS7oLcWsMUaFnQ-85" value="-&amp;nbsp;acessar_contratos&lt;span style=&quot;background-color: initial;&quot;&gt;()&lt;/span&gt;" style="text;strokeColor=none;fillColor=none;align=left;verticalAlign=top;spacingLeft=4;spacingRight=4;overflow=hidden;rotatable=0;points=[[0,0.5],[1,0.5]];portConstraint=eastwest;whiteSpace=wrap;html=1;labelBackgroundColor=none;swimlaneLine=1;shadow=0;" parent="PUjruNRS7oLcWsMUaFnQ-69" vertex="1">
          <mxGeometry y="412" width="271" height="30" as="geometry" />
        </mxCell>
        <mxCell id="PUjruNRS7oLcWsMUaFnQ-86" value="- listar_fun_ativos()" style="text;align=left;verticalAlign=top;spacingLeft=4;spacingRight=4;overflow=hidden;rotatable=0;points=[[0,0.5],[1,0.5]];portConstraint=eastwest;rounded=0;shadow=0;html=0;labelBackgroundColor=none;fillColor=none;strokeColor=none;swimlaneLine=1;" parent="PUjruNRS7oLcWsMUaFnQ-69" vertex="1">
          <mxGeometry y="442" width="271" height="26" as="geometry" />
        </mxCell>
        <mxCell id="PUjruNRS7oLcWsMUaFnQ-87" value="- retornar()" style="text;align=left;verticalAlign=top;spacingLeft=4;spacingRight=4;overflow=hidden;rotatable=0;points=[[0,0.5],[1,0.5]];portConstraint=eastwest;labelBackgroundColor=none;fillColor=none;strokeColor=none;swimlaneLine=1;shadow=0;" parent="PUjruNRS7oLcWsMUaFnQ-69" vertex="1">
          <mxGeometry y="468" width="271" height="26" as="geometry" />
        </mxCell>
        <mxCell id="PUjruNRS7oLcWsMUaFnQ-88" style="edgeStyle=orthogonalEdgeStyle;rounded=0;orthogonalLoop=1;jettySize=auto;html=1;entryX=0.5;entryY=0;entryDx=0;entryDy=0;endArrow=open;endFill=0;endSize=10;" parent="WIyWlLk6GJQsqaUBKTNV-1" source="PUjruNRS7oLcWsMUaFnQ-89" target="PUjruNRS7oLcWsMUaFnQ-103" edge="1">
          <mxGeometry relative="1" as="geometry" />
        </mxCell>
        <mxCell id="PUjruNRS7oLcWsMUaFnQ-89" value="ControladorCargo" style="swimlane;fontStyle=0;align=center;verticalAlign=top;childLayout=stackLayout;horizontal=1;startSize=26;horizontalStack=0;resizeParent=1;resizeLast=0;collapsible=1;marginBottom=0;rounded=1;shadow=0;strokeWidth=1;fillColor=#E5CCFF;strokeColor=#9673a6;labelBackgroundColor=none;fillStyle=auto;gradientDirection=west;swimlaneFillColor=#FFFFFF;swimlaneLine=1;gradientColor=#CC99FF;" parent="WIyWlLk6GJQsqaUBKTNV-1" vertex="1">
          <mxGeometry x="2470" y="-1" width="180" height="348" as="geometry">
            <mxRectangle x="340" y="380" width="170" height="26" as="alternateBounds" />
          </mxGeometry>
        </mxCell>
        <mxCell id="PUjruNRS7oLcWsMUaFnQ-90" value="- cargos: []" style="text;align=left;verticalAlign=top;spacingLeft=4;spacingRight=4;overflow=hidden;rotatable=0;points=[[0,0.5],[1,0.5]];portConstraint=eastwest;labelBackgroundColor=none;fillColor=none;strokeColor=none;swimlaneLine=1;shadow=0;" parent="PUjruNRS7oLcWsMUaFnQ-89" vertex="1">
          <mxGeometry y="26" width="180" height="26" as="geometry" />
        </mxCell>
        <mxCell id="PUjruNRS7oLcWsMUaFnQ-91" value="&lt;span style=&quot;color: rgb(0, 0, 0); font-family: Helvetica; font-size: 12px; font-style: normal; font-variant-ligatures: normal; font-variant-caps: normal; font-weight: 400; letter-spacing: normal; orphans: 2; text-align: left; text-indent: 0px; text-transform: none; widows: 2; word-spacing: 0px; -webkit-text-stroke-width: 0px; background-color: rgb(251, 251, 251); text-decoration-thickness: initial; text-decoration-style: initial; text-decoration-color: initial; float: none; display: inline !important;&quot;&gt;- tela_cargo: TelaCargo&lt;/span&gt;" style="text;whiteSpace=wrap;html=1;verticalAlign=top;fillColor=none;strokeColor=none;strokeWidth=1;labelBackgroundColor=none;spacingTop=-1;spacingLeft=4;spacingRight=4;dashed=1;swimlaneLine=1;shadow=0;" parent="PUjruNRS7oLcWsMUaFnQ-89" vertex="1">
          <mxGeometry y="52" width="180" height="28" as="geometry" />
        </mxCell>
        <mxCell id="PUjruNRS7oLcWsMUaFnQ-92" value="- control_filial: ControladorFilial" style="text;align=left;verticalAlign=top;spacingLeft=4;spacingRight=4;overflow=hidden;rotatable=0;points=[[0,0.5],[1,0.5]];portConstraint=eastwest;labelBackgroundColor=none;fillColor=none;strokeColor=none;gradientColor=none;swimlaneLine=1;shadow=0;" parent="PUjruNRS7oLcWsMUaFnQ-89" vertex="1">
          <mxGeometry y="80" width="180" height="26" as="geometry" />
        </mxCell>
        <mxCell id="PUjruNRS7oLcWsMUaFnQ-93" value="" style="line;strokeWidth=1;fillColor=#e1d5e7;align=left;verticalAlign=middle;spacingTop=-1;spacingLeft=3;spacingRight=3;rotatable=0;labelPosition=right;points=[];portConstraint=eastwest;strokeColor=#9673a6;fontSize=16;" parent="PUjruNRS7oLcWsMUaFnQ-89" vertex="1">
          <mxGeometry y="106" width="180" height="8" as="geometry" />
        </mxCell>
        <mxCell id="PUjruNRS7oLcWsMUaFnQ-94" value="- abre_tela()" style="text;align=left;verticalAlign=top;spacingLeft=4;spacingRight=4;overflow=hidden;rotatable=0;points=[[0,0.5],[1,0.5]];portConstraint=eastwest;labelBackgroundColor=none;fillColor=none;strokeColor=none;swimlaneLine=1;shadow=0;" parent="PUjruNRS7oLcWsMUaFnQ-89" vertex="1">
          <mxGeometry y="114" width="180" height="26" as="geometry" />
        </mxCell>
        <mxCell id="PUjruNRS7oLcWsMUaFnQ-95" value="- inclui_cargo()" style="text;align=left;verticalAlign=top;spacingLeft=4;spacingRight=4;overflow=hidden;rotatable=0;points=[[0,0.5],[1,0.5]];portConstraint=eastwest;labelBackgroundColor=none;fillColor=none;strokeColor=none;swimlaneLine=1;shadow=0;" parent="PUjruNRS7oLcWsMUaFnQ-89" vertex="1">
          <mxGeometry y="140" width="180" height="26" as="geometry" />
        </mxCell>
        <mxCell id="PUjruNRS7oLcWsMUaFnQ-96" value="- altera_cargo()" style="text;align=left;verticalAlign=top;spacingLeft=4;spacingRight=4;overflow=hidden;rotatable=0;points=[[0,0.5],[1,0.5]];portConstraint=eastwest;labelBackgroundColor=none;fillColor=none;strokeColor=none;swimlaneLine=1;shadow=0;" parent="PUjruNRS7oLcWsMUaFnQ-89" vertex="1">
          <mxGeometry y="166" width="180" height="26" as="geometry" />
        </mxCell>
        <mxCell id="PUjruNRS7oLcWsMUaFnQ-97" value="- exclui_cargo()" style="text;align=left;verticalAlign=top;spacingLeft=4;spacingRight=4;overflow=hidden;rotatable=0;points=[[0,0.5],[1,0.5]];portConstraint=eastwest;labelBackgroundColor=none;fillColor=none;strokeColor=none;swimlaneLine=1;shadow=0;" parent="PUjruNRS7oLcWsMUaFnQ-89" vertex="1">
          <mxGeometry y="192" width="180" height="26" as="geometry" />
        </mxCell>
        <mxCell id="PUjruNRS7oLcWsMUaFnQ-98" value="- lista_cargo()" style="text;align=left;verticalAlign=top;spacingLeft=4;spacingRight=4;overflow=hidden;rotatable=0;points=[[0,0.5],[1,0.5]];portConstraint=eastwest;labelBackgroundColor=none;fillColor=none;strokeColor=none;swimlaneLine=1;shadow=0;" parent="PUjruNRS7oLcWsMUaFnQ-89" vertex="1">
          <mxGeometry y="218" width="180" height="26" as="geometry" />
        </mxCell>
        <mxCell id="PUjruNRS7oLcWsMUaFnQ-99" value="- seleciona_cargo()" style="text;align=left;verticalAlign=top;spacingLeft=4;spacingRight=4;overflow=hidden;rotatable=0;points=[[0,0.5],[1,0.5]];portConstraint=eastwest;labelBackgroundColor=none;fillColor=none;strokeColor=none;swimlaneLine=1;shadow=0;" parent="PUjruNRS7oLcWsMUaFnQ-89" vertex="1">
          <mxGeometry y="244" width="180" height="26" as="geometry" />
        </mxCell>
        <mxCell id="PUjruNRS7oLcWsMUaFnQ-100" value="- lista_todos_cargos()" style="text;align=left;verticalAlign=top;spacingLeft=4;spacingRight=4;overflow=hidden;rotatable=0;points=[[0,0.5],[1,0.5]];portConstraint=eastwest;labelBackgroundColor=none;fillColor=none;strokeColor=none;swimlaneLine=1;shadow=0;" parent="PUjruNRS7oLcWsMUaFnQ-89" vertex="1">
          <mxGeometry y="270" width="180" height="26" as="geometry" />
        </mxCell>
        <mxCell id="PUjruNRS7oLcWsMUaFnQ-101" value="- pega_cargo_por_id()" style="text;align=left;verticalAlign=top;spacingLeft=4;spacingRight=4;overflow=hidden;rotatable=0;points=[[0,0.5],[1,0.5]];portConstraint=eastwest;labelBackgroundColor=none;fillColor=none;strokeColor=none;swimlaneLine=1;shadow=0;" parent="PUjruNRS7oLcWsMUaFnQ-89" vertex="1">
          <mxGeometry y="296" width="180" height="26" as="geometry" />
        </mxCell>
        <mxCell id="PUjruNRS7oLcWsMUaFnQ-102" value="- retornar()" style="text;align=left;verticalAlign=top;spacingLeft=4;spacingRight=4;overflow=hidden;rotatable=0;points=[[0,0.5],[1,0.5]];portConstraint=eastwest;labelBackgroundColor=none;fillColor=none;strokeColor=none;swimlaneLine=1;shadow=0;" parent="PUjruNRS7oLcWsMUaFnQ-89" vertex="1">
          <mxGeometry y="322" width="180" height="26" as="geometry" />
        </mxCell>
        <mxCell id="PUjruNRS7oLcWsMUaFnQ-103" value="Cargo" style="swimlane;fontStyle=0;childLayout=stackLayout;horizontal=1;startSize=26;horizontalStack=0;resizeParent=1;resizeParentMax=0;resizeLast=0;collapsible=1;marginBottom=0;whiteSpace=wrap;html=1;fontFamily=Helvetica;fontSize=12;shadow=0;strokeColor=#6C8EBF;fillColor=#a6c6f2;rounded=1;glass=0;" parent="WIyWlLk6GJQsqaUBKTNV-1" collapsed="1" vertex="1">
          <mxGeometry x="2525" y="380" width="70" height="30" as="geometry">
            <mxRectangle x="2310" y="254" width="140" height="276" as="alternateBounds" />
          </mxGeometry>
        </mxCell>
        <mxCell id="PUjruNRS7oLcWsMUaFnQ-104" value="- id: int" style="text;align=left;verticalAlign=top;spacingLeft=4;spacingRight=4;overflow=hidden;rotatable=0;points=[[0,0.5],[1,0.5]];portConstraint=eastwest;whiteSpace=wrap;html=1;fontSize=12;fontFamily=Helvetica;strokeColor=none;fillColor=#e8f0fd;rounded=1;shadow=0;" parent="PUjruNRS7oLcWsMUaFnQ-103" vertex="1">
          <mxGeometry y="26" width="140" height="26" as="geometry" />
        </mxCell>
        <mxCell id="PUjruNRS7oLcWsMUaFnQ-105" value="- titulo: str" style="text;align=left;verticalAlign=top;spacingLeft=4;spacingRight=4;overflow=hidden;rotatable=0;points=[[0,0.5],[1,0.5]];portConstraint=eastwest;whiteSpace=wrap;html=1;fontSize=12;fontFamily=Helvetica;strokeColor=none;fillColor=#e8f0fd;rounded=1;" parent="PUjruNRS7oLcWsMUaFnQ-103" vertex="1">
          <mxGeometry y="52" width="140" height="26" as="geometry" />
        </mxCell>
        <mxCell id="PUjruNRS7oLcWsMUaFnQ-106" value="- salario: float" style="text;align=left;verticalAlign=top;spacingLeft=4;spacingRight=4;overflow=hidden;rotatable=0;points=[[0,0.5],[1,0.5]];portConstraint=eastwest;whiteSpace=wrap;html=1;fontSize=12;fontFamily=Helvetica;strokeColor=none;fillColor=#e8f0fd;rounded=1;" parent="PUjruNRS7oLcWsMUaFnQ-103" vertex="1">
          <mxGeometry y="78" width="140" height="26" as="geometry" />
        </mxCell>
        <mxCell id="PUjruNRS7oLcWsMUaFnQ-107" value="" style="line;html=1;strokeWidth=1;align=left;verticalAlign=middle;spacingTop=-1;spacingLeft=3;spacingRight=3;rotatable=0;labelPosition=right;points=[];portConstraint=eastwest;dashed=1;strokeColor=none;fillColor=#F6EDFC;rounded=1;" parent="PUjruNRS7oLcWsMUaFnQ-103" vertex="1">
          <mxGeometry y="104" width="140" height="8" as="geometry" />
        </mxCell>
        <mxCell id="PUjruNRS7oLcWsMUaFnQ-108" value="- __init__(titulo, salario)" style="text;align=left;verticalAlign=top;spacingLeft=4;spacingRight=4;overflow=hidden;rotatable=0;points=[[0,0.5],[1,0.5]];portConstraint=eastwest;strokeColor=none;fillColor=#dae8fc;rounded=1;" parent="PUjruNRS7oLcWsMUaFnQ-103" vertex="1">
          <mxGeometry y="112" width="140" height="34" as="geometry" />
        </mxCell>
        <mxCell id="PUjruNRS7oLcWsMUaFnQ-109" value="- id()" style="text;align=left;verticalAlign=top;spacingLeft=4;spacingRight=4;overflow=hidden;rotatable=0;points=[[0,0.5],[1,0.5]];portConstraint=eastwest;whiteSpace=wrap;html=1;fontSize=12;fontFamily=Helvetica;strokeColor=none;fillColor=#dae8fc;rounded=1;shadow=0;" parent="PUjruNRS7oLcWsMUaFnQ-103" vertex="1">
          <mxGeometry y="146" width="140" height="26" as="geometry" />
        </mxCell>
        <mxCell id="PUjruNRS7oLcWsMUaFnQ-110" value="- titulo()" style="text;align=left;verticalAlign=top;spacingLeft=4;spacingRight=4;overflow=hidden;rotatable=0;points=[[0,0.5],[1,0.5]];portConstraint=eastwest;whiteSpace=wrap;html=1;fontSize=12;fontFamily=Helvetica;strokeColor=none;fillColor=#dae8fc;rounded=1;" parent="PUjruNRS7oLcWsMUaFnQ-103" vertex="1">
          <mxGeometry y="172" width="140" height="26" as="geometry" />
        </mxCell>
        <mxCell id="PUjruNRS7oLcWsMUaFnQ-111" value="- titulo(str)" style="text;align=left;verticalAlign=top;spacingLeft=4;spacingRight=4;overflow=hidden;rotatable=0;points=[[0,0.5],[1,0.5]];portConstraint=eastwest;whiteSpace=wrap;html=1;fontSize=12;fontFamily=Helvetica;strokeColor=none;fillColor=#dae8fc;rounded=1;" parent="PUjruNRS7oLcWsMUaFnQ-103" vertex="1">
          <mxGeometry y="198" width="140" height="26" as="geometry" />
        </mxCell>
        <mxCell id="PUjruNRS7oLcWsMUaFnQ-112" value="- salario()" style="text;align=left;verticalAlign=top;spacingLeft=4;spacingRight=4;overflow=hidden;rotatable=0;points=[[0,0.5],[1,0.5]];portConstraint=eastwest;whiteSpace=wrap;html=1;fontSize=12;fontFamily=Helvetica;strokeColor=none;fillColor=#dae8fc;rounded=1;" parent="PUjruNRS7oLcWsMUaFnQ-103" vertex="1">
          <mxGeometry y="224" width="140" height="26" as="geometry" />
        </mxCell>
        <mxCell id="PUjruNRS7oLcWsMUaFnQ-113" value="- salario(float)" style="text;align=left;verticalAlign=top;spacingLeft=4;spacingRight=4;overflow=hidden;rotatable=0;points=[[0,0.5],[1,0.5]];portConstraint=eastwest;whiteSpace=wrap;html=1;fontSize=12;fontFamily=Helvetica;strokeColor=none;fillColor=#dae8fc;rounded=1;" parent="PUjruNRS7oLcWsMUaFnQ-103" vertex="1">
          <mxGeometry y="250" width="140" height="26" as="geometry" />
        </mxCell>
        <mxCell id="PUjruNRS7oLcWsMUaFnQ-114" value="Gerente" style="swimlane;fontStyle=0;align=center;verticalAlign=top;childLayout=stackLayout;horizontal=1;startSize=26;horizontalStack=0;resizeParent=1;resizeLast=0;collapsible=1;marginBottom=0;rounded=1;shadow=0;strokeWidth=1;swimlaneLine=1;strokeColor=#6C8EBF;fillColor=#A6C6F2;perimeterSpacing=0;" parent="WIyWlLk6GJQsqaUBKTNV-1" collapsed="1" vertex="1">
          <mxGeometry x="1680" y="-390" width="160" height="26" as="geometry">
            <mxRectangle x="1400" y="632" width="190" height="138" as="alternateBounds" />
          </mxGeometry>
        </mxCell>
        <mxCell id="PUjruNRS7oLcWsMUaFnQ-115" value="- contratos: []" style="text;align=left;verticalAlign=top;spacingLeft=4;spacingRight=4;overflow=hidden;rotatable=0;points=[[0,0.5],[1,0.5]];portConstraint=eastwest;rounded=1;shadow=0;html=0;strokeColor=none;fillColor=#e8f0fd;" parent="PUjruNRS7oLcWsMUaFnQ-114" vertex="1">
          <mxGeometry y="26" width="190" height="26" as="geometry" />
        </mxCell>
        <mxCell id="PUjruNRS7oLcWsMUaFnQ-116" value="" style="line;html=1;strokeWidth=1;align=left;verticalAlign=middle;spacingTop=-1;spacingLeft=3;spacingRight=3;rotatable=0;labelPosition=right;points=[];portConstraint=eastwest;dashed=1;strokeColor=none;fillColor=#dae8fc;rounded=1;shadow=0;" parent="PUjruNRS7oLcWsMUaFnQ-114" vertex="1">
          <mxGeometry y="52" width="190" height="8" as="geometry" />
        </mxCell>
        <mxCell id="PUjruNRS7oLcWsMUaFnQ-117" value="- contratos()" style="text;align=left;verticalAlign=top;spacingLeft=4;spacingRight=4;overflow=hidden;rotatable=0;points=[[0,0.5],[1,0.5]];portConstraint=eastwest;rounded=1;shadow=0;html=0;strokeColor=none;fillColor=#dae8fc;" parent="PUjruNRS7oLcWsMUaFnQ-114" vertex="1">
          <mxGeometry y="60" width="190" height="26" as="geometry" />
        </mxCell>
        <mxCell id="PUjruNRS7oLcWsMUaFnQ-118" value="- add_contrato()" style="text;align=left;verticalAlign=top;spacingLeft=4;spacingRight=4;overflow=hidden;rotatable=0;points=[[0,0.5],[1,0.5]];portConstraint=eastwest;rounded=1;shadow=0;html=0;strokeColor=none;fillColor=#dae8fc;" parent="PUjruNRS7oLcWsMUaFnQ-114" vertex="1">
          <mxGeometry y="86" width="190" height="26" as="geometry" />
        </mxCell>
        <mxCell id="PUjruNRS7oLcWsMUaFnQ-119" value="- rem_contrato()" style="text;align=left;verticalAlign=top;spacingLeft=4;spacingRight=4;overflow=hidden;rotatable=0;points=[[0,0.5],[1,0.5]];portConstraint=eastwest;rounded=1;shadow=0;html=0;strokeColor=none;fillColor=#dae8fc;" parent="PUjruNRS7oLcWsMUaFnQ-114" vertex="1">
          <mxGeometry y="112" width="190" height="26" as="geometry" />
        </mxCell>
        <mxCell id="PUjruNRS7oLcWsMUaFnQ-120" value="FunComum" style="swimlane;fontStyle=0;align=center;verticalAlign=top;childLayout=stackLayout;horizontal=1;startSize=26;horizontalStack=0;resizeParent=1;resizeLast=0;collapsible=1;marginBottom=0;rounded=1;shadow=0;strokeWidth=1;swimlaneLine=1;strokeColor=#6C8EBF;fillColor=#A6C6F2;" parent="WIyWlLk6GJQsqaUBKTNV-1" collapsed="1" vertex="1">
          <mxGeometry x="1740" y="570" width="160" height="26" as="geometry">
            <mxRectangle x="1620" y="642" width="170" height="60" as="alternateBounds" />
          </mxGeometry>
        </mxCell>
        <mxCell id="PUjruNRS7oLcWsMUaFnQ-121" value="- gerente: Gerente" style="text;align=left;verticalAlign=top;spacingLeft=4;spacingRight=4;overflow=hidden;rotatable=0;points=[[0,0.5],[1,0.5]];portConstraint=eastwest;rounded=1;shadow=0;html=0;strokeColor=none;fillColor=#e8f0fd;" parent="PUjruNRS7oLcWsMUaFnQ-120" vertex="1">
          <mxGeometry y="26" width="170" height="26" as="geometry" />
        </mxCell>
        <mxCell id="PUjruNRS7oLcWsMUaFnQ-122" value="" style="line;html=1;strokeWidth=1;align=left;verticalAlign=middle;spacingTop=-1;spacingLeft=3;spacingRight=3;rotatable=0;labelPosition=right;points=[];portConstraint=eastwest;dashed=1;strokeColor=none;fillColor=#dae8fc;rounded=1;shadow=0;" parent="PUjruNRS7oLcWsMUaFnQ-120" vertex="1">
          <mxGeometry y="52" width="170" height="8" as="geometry" />
        </mxCell>
        <mxCell id="PUjruNRS7oLcWsMUaFnQ-123" value="Contrato" style="swimlane;fontStyle=0;align=center;verticalAlign=top;childLayout=stackLayout;horizontal=1;startSize=26;horizontalStack=0;resizeParent=1;resizeLast=0;collapsible=1;marginBottom=0;rounded=1;shadow=0;strokeWidth=1;swimlaneLine=1;strokeColor=#6C8EBF;fillColor=#A6C6F2;" parent="WIyWlLk6GJQsqaUBKTNV-1" collapsed="1" vertex="1">
          <mxGeometry x="2010" y="930" width="160" height="26" as="geometry">
            <mxRectangle x="1820" y="85" width="190" height="698" as="alternateBounds" />
          </mxGeometry>
        </mxCell>
        <mxCell id="PUjruNRS7oLcWsMUaFnQ-124" value="- id: int" style="text;align=left;verticalAlign=top;spacingLeft=4;spacingRight=4;overflow=hidden;rotatable=0;points=[[0,0.5],[1,0.5]];portConstraint=eastwest;whiteSpace=wrap;html=1;fontSize=12;fontFamily=Helvetica;strokeColor=none;fillColor=#e8f0fd;rounded=1;shadow=0;" parent="PUjruNRS7oLcWsMUaFnQ-123" vertex="1">
          <mxGeometry y="26" width="190" height="26" as="geometry" />
        </mxCell>
        <mxCell id="PUjruNRS7oLcWsMUaFnQ-125" value="- data_inicio: str" style="text;align=left;verticalAlign=top;spacingLeft=4;spacingRight=4;overflow=hidden;rotatable=0;points=[[0,0.5],[1,0.5]];portConstraint=eastwest;rounded=1;shadow=0;html=0;strokeColor=none;fillColor=#e8f0fd;" parent="PUjruNRS7oLcWsMUaFnQ-123" vertex="1">
          <mxGeometry y="52" width="190" height="26" as="geometry" />
        </mxCell>
        <mxCell id="PUjruNRS7oLcWsMUaFnQ-126" value="- data_final: str" style="text;align=left;verticalAlign=top;spacingLeft=4;spacingRight=4;overflow=hidden;rotatable=0;points=[[0,0.5],[1,0.5]];portConstraint=eastwest;rounded=1;shadow=0;html=0;strokeColor=none;fillColor=#e8f0fd;" parent="PUjruNRS7oLcWsMUaFnQ-123" vertex="1">
          <mxGeometry y="78" width="190" height="26" as="geometry" />
        </mxCell>
        <mxCell id="PUjruNRS7oLcWsMUaFnQ-127" value="- cargo: Cargo" style="text;align=left;verticalAlign=top;spacingLeft=4;spacingRight=4;overflow=hidden;rotatable=0;points=[[0,0.5],[1,0.5]];portConstraint=eastwest;rounded=1;shadow=0;html=0;strokeColor=none;fillColor=#e8f0fd;" parent="PUjruNRS7oLcWsMUaFnQ-123" vertex="1">
          <mxGeometry y="104" width="190" height="26" as="geometry" />
        </mxCell>
        <mxCell id="PUjruNRS7oLcWsMUaFnQ-128" value="- empregado: Funcionário" style="text;align=left;verticalAlign=top;spacingLeft=4;spacingRight=4;overflow=hidden;rotatable=0;points=[[0,0.5],[1,0.5]];portConstraint=eastwest;rounded=1;shadow=0;html=0;strokeColor=none;fillColor=#e8f0fd;" parent="PUjruNRS7oLcWsMUaFnQ-123" vertex="1">
          <mxGeometry y="130" width="190" height="26" as="geometry" />
        </mxCell>
        <mxCell id="PUjruNRS7oLcWsMUaFnQ-129" value="- empregador: Gerente" style="text;align=left;verticalAlign=top;spacingLeft=4;spacingRight=4;overflow=hidden;rotatable=0;points=[[0,0.5],[1,0.5]];portConstraint=eastwest;rounded=1;shadow=0;html=0;strokeColor=none;fillColor=#e8f0fd;" parent="PUjruNRS7oLcWsMUaFnQ-123" vertex="1">
          <mxGeometry y="156" width="190" height="26" as="geometry" />
        </mxCell>
        <mxCell id="PUjruNRS7oLcWsMUaFnQ-130" value="- filial: Filial" style="text;align=left;verticalAlign=top;spacingLeft=4;spacingRight=4;overflow=hidden;rotatable=0;points=[[0,0.5],[1,0.5]];portConstraint=eastwest;rounded=1;shadow=0;html=0;strokeColor=none;fillColor=#e8f0fd;" parent="PUjruNRS7oLcWsMUaFnQ-123" vertex="1">
          <mxGeometry y="182" width="190" height="26" as="geometry" />
        </mxCell>
        <mxCell id="PUjruNRS7oLcWsMUaFnQ-131" value="- mud_cargos: []" style="text;align=left;verticalAlign=top;spacingLeft=4;spacingRight=4;overflow=hidden;rotatable=0;points=[[0,0.5],[1,0.5]];portConstraint=eastwest;rounded=1;shadow=0;html=0;strokeColor=none;fillColor=#e8f0fd;" parent="PUjruNRS7oLcWsMUaFnQ-123" vertex="1">
          <mxGeometry y="208" width="190" height="26" as="geometry" />
        </mxCell>
        <mxCell id="PUjruNRS7oLcWsMUaFnQ-132" value="- transferencias: []" style="text;align=left;verticalAlign=top;spacingLeft=4;spacingRight=4;overflow=hidden;rotatable=0;points=[[0,0.5],[1,0.5]];portConstraint=eastwest;rounded=1;shadow=0;html=0;strokeColor=none;fillColor=#e8f0fd;" parent="PUjruNRS7oLcWsMUaFnQ-123" vertex="1">
          <mxGeometry y="234" width="190" height="26" as="geometry" />
        </mxCell>
        <mxCell id="PUjruNRS7oLcWsMUaFnQ-133" value="" style="line;html=1;strokeWidth=1;align=left;verticalAlign=middle;spacingTop=-1;spacingLeft=3;spacingRight=3;rotatable=0;labelPosition=right;points=[];portConstraint=eastwest;dashed=1;strokeColor=none;fillColor=#FCFCFC;rounded=1;shadow=0;" parent="PUjruNRS7oLcWsMUaFnQ-123" vertex="1">
          <mxGeometry y="260" width="190" height="8" as="geometry" />
        </mxCell>
        <mxCell id="PUjruNRS7oLcWsMUaFnQ-134" value="- __init__(data_inicio, cargo, &#xa;empregado, filial)" style="text;align=left;verticalAlign=top;spacingLeft=4;spacingRight=4;overflow=hidden;rotatable=0;points=[[0,0.5],[1,0.5]];portConstraint=eastwest;strokeColor=none;fillColor=#dae8fc;rounded=1;shadow=0;" parent="PUjruNRS7oLcWsMUaFnQ-123" vertex="1">
          <mxGeometry y="268" width="190" height="40" as="geometry" />
        </mxCell>
        <mxCell id="PUjruNRS7oLcWsMUaFnQ-135" value="- id()" style="text;align=left;verticalAlign=top;spacingLeft=4;spacingRight=4;overflow=hidden;rotatable=0;points=[[0,0.5],[1,0.5]];portConstraint=eastwest;whiteSpace=wrap;html=1;fontSize=12;fontFamily=Helvetica;strokeColor=none;fillColor=#dae8fc;rounded=1;shadow=0;" parent="PUjruNRS7oLcWsMUaFnQ-123" vertex="1">
          <mxGeometry y="308" width="190" height="26" as="geometry" />
        </mxCell>
        <mxCell id="PUjruNRS7oLcWsMUaFnQ-136" value="- data_inicio()" style="text;align=left;verticalAlign=top;spacingLeft=4;spacingRight=4;overflow=hidden;rotatable=0;points=[[0,0.5],[1,0.5]];portConstraint=eastwest;rounded=1;shadow=0;html=0;strokeColor=none;fillColor=#dae8fc;" parent="PUjruNRS7oLcWsMUaFnQ-123" vertex="1">
          <mxGeometry y="334" width="190" height="26" as="geometry" />
        </mxCell>
        <mxCell id="PUjruNRS7oLcWsMUaFnQ-137" value="- data_inicio(str)" style="text;align=left;verticalAlign=top;spacingLeft=4;spacingRight=4;overflow=hidden;rotatable=0;points=[[0,0.5],[1,0.5]];portConstraint=eastwest;rounded=1;shadow=0;html=0;strokeColor=none;fillColor=#dae8fc;" parent="PUjruNRS7oLcWsMUaFnQ-123" vertex="1">
          <mxGeometry y="360" width="190" height="26" as="geometry" />
        </mxCell>
        <mxCell id="PUjruNRS7oLcWsMUaFnQ-138" value="- data_final()" style="text;align=left;verticalAlign=top;spacingLeft=4;spacingRight=4;overflow=hidden;rotatable=0;points=[[0,0.5],[1,0.5]];portConstraint=eastwest;rounded=1;shadow=0;html=0;strokeColor=none;fillColor=#dae8fc;" parent="PUjruNRS7oLcWsMUaFnQ-123" vertex="1">
          <mxGeometry y="386" width="190" height="26" as="geometry" />
        </mxCell>
        <mxCell id="PUjruNRS7oLcWsMUaFnQ-139" value="- data_final(str)" style="text;align=left;verticalAlign=top;spacingLeft=4;spacingRight=4;overflow=hidden;rotatable=0;points=[[0,0.5],[1,0.5]];portConstraint=eastwest;rounded=1;shadow=0;html=0;strokeColor=none;fillColor=#dae8fc;" parent="PUjruNRS7oLcWsMUaFnQ-123" vertex="1">
          <mxGeometry y="412" width="190" height="26" as="geometry" />
        </mxCell>
        <mxCell id="PUjruNRS7oLcWsMUaFnQ-140" value="- empregado()" style="text;align=left;verticalAlign=top;spacingLeft=4;spacingRight=4;overflow=hidden;rotatable=0;points=[[0,0.5],[1,0.5]];portConstraint=eastwest;rounded=1;shadow=0;html=0;strokeColor=none;fillColor=#dae8fc;" parent="PUjruNRS7oLcWsMUaFnQ-123" vertex="1">
          <mxGeometry y="438" width="190" height="26" as="geometry" />
        </mxCell>
        <mxCell id="PUjruNRS7oLcWsMUaFnQ-141" value="- empregado(Funcionario)" style="text;align=left;verticalAlign=top;spacingLeft=4;spacingRight=4;overflow=hidden;rotatable=0;points=[[0,0.5],[1,0.5]];portConstraint=eastwest;rounded=1;shadow=0;html=0;strokeColor=none;fillColor=#dae8fc;" parent="PUjruNRS7oLcWsMUaFnQ-123" vertex="1">
          <mxGeometry y="464" width="190" height="26" as="geometry" />
        </mxCell>
        <mxCell id="PUjruNRS7oLcWsMUaFnQ-142" value="- filial()" style="text;align=left;verticalAlign=top;spacingLeft=4;spacingRight=4;overflow=hidden;rotatable=0;points=[[0,0.5],[1,0.5]];portConstraint=eastwest;rounded=1;shadow=0;html=0;strokeColor=none;fillColor=#dae8fc;" parent="PUjruNRS7oLcWsMUaFnQ-123" vertex="1">
          <mxGeometry y="490" width="190" height="26" as="geometry" />
        </mxCell>
        <mxCell id="PUjruNRS7oLcWsMUaFnQ-143" value="- filial(Filial)" style="text;align=left;verticalAlign=top;spacingLeft=4;spacingRight=4;overflow=hidden;rotatable=0;points=[[0,0.5],[1,0.5]];portConstraint=eastwest;rounded=1;shadow=0;html=0;strokeColor=none;fillColor=#dae8fc;" parent="PUjruNRS7oLcWsMUaFnQ-123" vertex="1">
          <mxGeometry y="516" width="190" height="26" as="geometry" />
        </mxCell>
        <mxCell id="PUjruNRS7oLcWsMUaFnQ-144" value="- transferencias()" style="text;align=left;verticalAlign=top;spacingLeft=4;spacingRight=4;overflow=hidden;rotatable=0;points=[[0,0.5],[1,0.5]];portConstraint=eastwest;rounded=1;shadow=0;html=0;strokeColor=none;fillColor=#dae8fc;" parent="PUjruNRS7oLcWsMUaFnQ-123" vertex="1">
          <mxGeometry y="542" width="190" height="26" as="geometry" />
        </mxCell>
        <mxCell id="PUjruNRS7oLcWsMUaFnQ-145" value="- mud_cargo()" style="text;align=left;verticalAlign=top;spacingLeft=4;spacingRight=4;overflow=hidden;rotatable=0;points=[[0,0.5],[1,0.5]];portConstraint=eastwest;rounded=1;shadow=0;html=0;strokeColor=none;fillColor=#dae8fc;" parent="PUjruNRS7oLcWsMUaFnQ-123" vertex="1">
          <mxGeometry y="568" width="190" height="26" as="geometry" />
        </mxCell>
        <mxCell id="PUjruNRS7oLcWsMUaFnQ-146" value="- add_transf(filial_nova)" style="text;align=left;verticalAlign=top;spacingLeft=4;spacingRight=4;overflow=hidden;rotatable=0;points=[[0,0.5],[1,0.5]];portConstraint=eastwest;rounded=1;shadow=0;html=0;strokeColor=none;fillColor=#dae8fc;" parent="PUjruNRS7oLcWsMUaFnQ-123" vertex="1">
          <mxGeometry y="594" width="190" height="26" as="geometry" />
        </mxCell>
        <mxCell id="PUjruNRS7oLcWsMUaFnQ-147" value="- add_mud_cargo(filial_nova)" style="text;align=left;verticalAlign=top;spacingLeft=4;spacingRight=4;overflow=hidden;rotatable=0;points=[[0,0.5],[1,0.5]];portConstraint=eastwest;rounded=1;shadow=0;html=0;strokeColor=none;fillColor=#dae8fc;" parent="PUjruNRS7oLcWsMUaFnQ-123" vertex="1">
          <mxGeometry y="620" width="190" height="26" as="geometry" />
        </mxCell>
        <mxCell id="PUjruNRS7oLcWsMUaFnQ-148" value="- rem_transf()" style="text;align=left;verticalAlign=top;spacingLeft=4;spacingRight=4;overflow=hidden;rotatable=0;points=[[0,0.5],[1,0.5]];portConstraint=eastwest;rounded=1;shadow=0;html=0;strokeColor=none;fillColor=#dae8fc;" parent="PUjruNRS7oLcWsMUaFnQ-123" vertex="1">
          <mxGeometry y="646" width="190" height="26" as="geometry" />
        </mxCell>
        <mxCell id="PUjruNRS7oLcWsMUaFnQ-149" value="- rem_mud_cargo()" style="text;align=left;verticalAlign=top;spacingLeft=4;spacingRight=4;overflow=hidden;rotatable=0;points=[[0,0.5],[1,0.5]];portConstraint=eastwest;rounded=1;shadow=0;html=0;strokeColor=none;fillColor=#dae8fc;" parent="PUjruNRS7oLcWsMUaFnQ-123" vertex="1">
          <mxGeometry y="672" width="190" height="26" as="geometry" />
        </mxCell>
        <mxCell id="PUjruNRS7oLcWsMUaFnQ-150" value="Filial" style="swimlane;fontStyle=0;align=center;verticalAlign=top;childLayout=stackLayout;horizontal=1;startSize=26;horizontalStack=0;resizeParent=1;resizeLast=0;collapsible=1;marginBottom=0;rounded=1;shadow=0;strokeWidth=1;swimlaneLine=1;strokeColor=#6C8EBF;fillColor=#a6c6f2;swimlaneFillColor=default;" parent="WIyWlLk6GJQsqaUBKTNV-1" collapsed="1" vertex="1">
          <mxGeometry x="1515.5" y="-180" width="160" height="26" as="geometry">
            <mxRectangle x="1340" y="166" width="180" height="400" as="alternateBounds" />
          </mxGeometry>
        </mxCell>
        <mxCell id="PUjruNRS7oLcWsMUaFnQ-151" value="- cep: str" style="text;align=left;verticalAlign=top;spacingLeft=4;spacingRight=4;overflow=hidden;rotatable=0;points=[[0,0.5],[1,0.5]];portConstraint=eastwest;strokeColor=none;fillColor=#e8f0fd;rounded=1;shadow=0;" parent="PUjruNRS7oLcWsMUaFnQ-150" vertex="1">
          <mxGeometry y="26" width="180" height="26" as="geometry" />
        </mxCell>
        <mxCell id="PUjruNRS7oLcWsMUaFnQ-152" value="- cidade: str" style="text;align=left;verticalAlign=top;spacingLeft=4;spacingRight=4;overflow=hidden;rotatable=0;points=[[0,0.5],[1,0.5]];portConstraint=eastwest;strokeColor=none;fillColor=#e8f0fd;rounded=1;shadow=0;" parent="PUjruNRS7oLcWsMUaFnQ-150" vertex="1">
          <mxGeometry y="52" width="180" height="26" as="geometry" />
        </mxCell>
        <mxCell id="PUjruNRS7oLcWsMUaFnQ-153" value="- gerente: Gerente" style="text;align=left;verticalAlign=top;spacingLeft=4;spacingRight=4;overflow=hidden;rotatable=0;points=[[0,0.5],[1,0.5]];portConstraint=eastwest;rounded=1;shadow=0;html=0;strokeColor=none;fillColor=#e8f0fd;" parent="PUjruNRS7oLcWsMUaFnQ-150" vertex="1">
          <mxGeometry y="78" width="180" height="26" as="geometry" />
        </mxCell>
        <mxCell id="PUjruNRS7oLcWsMUaFnQ-154" value="- funcionarios: []" style="text;align=left;verticalAlign=top;spacingLeft=4;spacingRight=4;overflow=hidden;rotatable=0;points=[[0,0.5],[1,0.5]];portConstraint=eastwest;rounded=1;shadow=0;html=0;strokeColor=none;fillColor=#e8f0fd;" parent="PUjruNRS7oLcWsMUaFnQ-150" vertex="1">
          <mxGeometry y="104" width="180" height="26" as="geometry" />
        </mxCell>
        <mxCell id="PUjruNRS7oLcWsMUaFnQ-155" value="" style="line;html=1;strokeWidth=1;align=left;verticalAlign=middle;spacingTop=-1;spacingLeft=3;spacingRight=3;rotatable=0;labelPosition=right;points=[];portConstraint=eastwest;dashed=1;strokeColor=none;fillColor=#dae8fc;rounded=1;shadow=0;" parent="PUjruNRS7oLcWsMUaFnQ-150" vertex="1">
          <mxGeometry y="130" width="180" height="8" as="geometry" />
        </mxCell>
        <mxCell id="PUjruNRS7oLcWsMUaFnQ-156" value="- __init__(cep, cidade, gerente)" style="text;align=left;verticalAlign=top;spacingLeft=4;spacingRight=4;overflow=hidden;rotatable=0;points=[[0,0.5],[1,0.5]];portConstraint=eastwest;strokeColor=none;fillColor=#dae8fc;rounded=1;shadow=0;" parent="PUjruNRS7oLcWsMUaFnQ-150" vertex="1">
          <mxGeometry y="138" width="180" height="28" as="geometry" />
        </mxCell>
        <mxCell id="PUjruNRS7oLcWsMUaFnQ-157" value="- cep()" style="text;align=left;verticalAlign=top;spacingLeft=4;spacingRight=4;overflow=hidden;rotatable=0;points=[[0,0.5],[1,0.5]];portConstraint=eastwest;strokeColor=none;fillColor=#dae8fc;rounded=1;shadow=0;" parent="PUjruNRS7oLcWsMUaFnQ-150" vertex="1">
          <mxGeometry y="166" width="180" height="26" as="geometry" />
        </mxCell>
        <mxCell id="PUjruNRS7oLcWsMUaFnQ-158" value="- cep(str)" style="text;align=left;verticalAlign=top;spacingLeft=4;spacingRight=4;overflow=hidden;rotatable=0;points=[[0,0.5],[1,0.5]];portConstraint=eastwest;strokeColor=none;fillColor=#dae8fc;rounded=1;shadow=0;" parent="PUjruNRS7oLcWsMUaFnQ-150" vertex="1">
          <mxGeometry y="192" width="180" height="26" as="geometry" />
        </mxCell>
        <mxCell id="PUjruNRS7oLcWsMUaFnQ-159" value="- cidade()" style="text;align=left;verticalAlign=top;spacingLeft=4;spacingRight=4;overflow=hidden;rotatable=0;points=[[0,0.5],[1,0.5]];portConstraint=eastwest;strokeColor=none;fillColor=#dae8fc;rounded=1;shadow=0;" parent="PUjruNRS7oLcWsMUaFnQ-150" vertex="1">
          <mxGeometry y="218" width="180" height="26" as="geometry" />
        </mxCell>
        <mxCell id="PUjruNRS7oLcWsMUaFnQ-160" value="- cidade(str)" style="text;align=left;verticalAlign=top;spacingLeft=4;spacingRight=4;overflow=hidden;rotatable=0;points=[[0,0.5],[1,0.5]];portConstraint=eastwest;strokeColor=none;fillColor=#dae8fc;rounded=1;shadow=0;" parent="PUjruNRS7oLcWsMUaFnQ-150" vertex="1">
          <mxGeometry y="244" width="180" height="26" as="geometry" />
        </mxCell>
        <mxCell id="PUjruNRS7oLcWsMUaFnQ-161" value="- gerente()" style="text;align=left;verticalAlign=top;spacingLeft=4;spacingRight=4;overflow=hidden;rotatable=0;points=[[0,0.5],[1,0.5]];portConstraint=eastwest;rounded=1;shadow=0;html=0;strokeColor=none;fillColor=#dae8fc;" parent="PUjruNRS7oLcWsMUaFnQ-150" vertex="1">
          <mxGeometry y="270" width="180" height="26" as="geometry" />
        </mxCell>
        <mxCell id="PUjruNRS7oLcWsMUaFnQ-162" value="- gerente(Gerente)" style="text;align=left;verticalAlign=top;spacingLeft=4;spacingRight=4;overflow=hidden;rotatable=0;points=[[0,0.5],[1,0.5]];portConstraint=eastwest;rounded=1;shadow=0;html=0;strokeColor=none;fillColor=#dae8fc;" parent="PUjruNRS7oLcWsMUaFnQ-150" vertex="1">
          <mxGeometry y="296" width="180" height="26" as="geometry" />
        </mxCell>
        <mxCell id="PUjruNRS7oLcWsMUaFnQ-163" value="- funcionarios()" style="text;align=left;verticalAlign=top;spacingLeft=4;spacingRight=4;overflow=hidden;rotatable=0;points=[[0,0.5],[1,0.5]];portConstraint=eastwest;rounded=1;shadow=0;html=0;strokeColor=none;fillColor=#dae8fc;" parent="PUjruNRS7oLcWsMUaFnQ-150" vertex="1">
          <mxGeometry y="322" width="180" height="26" as="geometry" />
        </mxCell>
        <mxCell id="PUjruNRS7oLcWsMUaFnQ-164" value="- add_funcionario()" style="text;align=left;verticalAlign=top;spacingLeft=4;spacingRight=4;overflow=hidden;rotatable=0;points=[[0,0.5],[1,0.5]];portConstraint=eastwest;rounded=1;shadow=0;html=0;strokeColor=none;fillColor=#dae8fc;" parent="PUjruNRS7oLcWsMUaFnQ-150" vertex="1">
          <mxGeometry y="348" width="180" height="26" as="geometry" />
        </mxCell>
        <mxCell id="PUjruNRS7oLcWsMUaFnQ-165" value="- rem_funcionario(cpf)" style="text;align=left;verticalAlign=top;spacingLeft=4;spacingRight=4;overflow=hidden;rotatable=0;points=[[0,0.5],[1,0.5]];portConstraint=eastwest;rounded=1;shadow=0;html=0;strokeColor=none;fillColor=#dae8fc;" parent="PUjruNRS7oLcWsMUaFnQ-150" vertex="1">
          <mxGeometry y="374" width="180" height="26" as="geometry" />
        </mxCell>
        <mxCell id="PUjruNRS7oLcWsMUaFnQ-166" style="edgeStyle=orthogonalEdgeStyle;rounded=0;orthogonalLoop=1;jettySize=auto;html=1;entryX=-0.006;entryY=-0.077;entryDx=0;entryDy=0;entryPerimeter=0;endArrow=open;endFill=0;startSize=10;endSize=10;fillColor=#e1d5e7;strokeColor=#9673a6;" parent="WIyWlLk6GJQsqaUBKTNV-1" source="PUjruNRS7oLcWsMUaFnQ-58" target="PUjruNRS7oLcWsMUaFnQ-16" edge="1">
          <mxGeometry relative="1" as="geometry" />
        </mxCell>
        <mxCell id="PUjruNRS7oLcWsMUaFnQ-167" style="edgeStyle=orthogonalEdgeStyle;rounded=0;orthogonalLoop=1;jettySize=auto;html=1;entryX=0;entryY=0.5;entryDx=0;entryDy=0;endSize=10;endArrow=open;endFill=0;fillColor=#e1d5e7;strokeColor=#9673a6;" parent="WIyWlLk6GJQsqaUBKTNV-1" source="PUjruNRS7oLcWsMUaFnQ-168" target="PUjruNRS7oLcWsMUaFnQ-114" edge="1">
          <mxGeometry relative="1" as="geometry">
            <Array as="points">
              <mxPoint x="1240" y="-377" />
            </Array>
          </mxGeometry>
        </mxCell>
        <mxCell id="PUjruNRS7oLcWsMUaFnQ-168" value="ControladorGerenteEsp" style="swimlane;fontStyle=0;align=center;verticalAlign=top;childLayout=stackLayout;horizontal=1;startSize=26;horizontalStack=0;resizeParent=1;resizeLast=0;collapsible=1;marginBottom=0;rounded=1;shadow=0;strokeWidth=1;fillColor=#E5CCFF;strokeColor=#9673a6;labelBackgroundColor=none;fillStyle=auto;gradientDirection=west;swimlaneFillColor=#FFFFFF;swimlaneLine=1;gradientColor=#CC99FF;" parent="WIyWlLk6GJQsqaUBKTNV-1" vertex="1">
          <mxGeometry x="1140" y="-144" width="200" height="270" as="geometry">
            <mxRectangle x="340" y="380" width="170" height="26" as="alternateBounds" />
          </mxGeometry>
        </mxCell>
        <mxCell id="PUjruNRS7oLcWsMUaFnQ-169" value="- gerentes: []" style="text;align=left;verticalAlign=top;spacingLeft=4;spacingRight=4;overflow=hidden;rotatable=0;points=[[0,0.5],[1,0.5]];portConstraint=eastwest;labelBackgroundColor=none;fillColor=none;strokeColor=none;swimlaneLine=1;shadow=0;" parent="PUjruNRS7oLcWsMUaFnQ-168" vertex="1">
          <mxGeometry y="26" width="200" height="26" as="geometry" />
        </mxCell>
        <mxCell id="PUjruNRS7oLcWsMUaFnQ-170" value="&lt;span style=&quot;color: rgb(0, 0, 0); font-family: Helvetica; font-size: 12px; font-style: normal; font-variant-ligatures: normal; font-variant-caps: normal; font-weight: 400; letter-spacing: normal; orphans: 2; text-align: left; text-indent: 0px; text-transform: none; widows: 2; word-spacing: 0px; -webkit-text-stroke-width: 0px; background-color: rgb(251, 251, 251); text-decoration-thickness: initial; text-decoration-style: initial; text-decoration-color: initial; float: none; display: inline !important;&quot;&gt;- tela_gerente: TelaGerente&lt;/span&gt;" style="text;whiteSpace=wrap;html=1;verticalAlign=top;fillColor=none;strokeColor=none;strokeWidth=1;labelBackgroundColor=none;spacingTop=-1;spacingLeft=4;spacingRight=4;dashed=1;swimlaneLine=1;shadow=0;" parent="PUjruNRS7oLcWsMUaFnQ-168" vertex="1">
          <mxGeometry y="52" width="200" height="28" as="geometry" />
        </mxCell>
        <mxCell id="PUjruNRS7oLcWsMUaFnQ-171" value="- control_filial: ControladorFilial" style="text;align=left;verticalAlign=top;spacingLeft=4;spacingRight=4;overflow=hidden;rotatable=0;points=[[0,0.5],[1,0.5]];portConstraint=eastwest;labelBackgroundColor=none;fillColor=none;strokeColor=none;gradientColor=none;swimlaneLine=1;shadow=0;" parent="PUjruNRS7oLcWsMUaFnQ-168" vertex="1">
          <mxGeometry y="80" width="200" height="26" as="geometry" />
        </mxCell>
        <mxCell id="PUjruNRS7oLcWsMUaFnQ-172" value="" style="line;strokeWidth=1;fillColor=#e1d5e7;align=left;verticalAlign=middle;spacingTop=-1;spacingLeft=3;spacingRight=3;rotatable=0;labelPosition=right;points=[];portConstraint=eastwest;strokeColor=#9673a6;fontSize=16;" parent="PUjruNRS7oLcWsMUaFnQ-168" vertex="1">
          <mxGeometry y="106" width="200" height="8" as="geometry" />
        </mxCell>
        <mxCell id="PUjruNRS7oLcWsMUaFnQ-173" value="- gerente()" style="text;align=left;verticalAlign=top;spacingLeft=4;spacingRight=4;overflow=hidden;rotatable=0;points=[[0,0.5],[1,0.5]];portConstraint=eastwest;labelBackgroundColor=none;fillColor=none;strokeColor=none;swimlaneLine=1;shadow=0;" parent="PUjruNRS7oLcWsMUaFnQ-168" vertex="1">
          <mxGeometry y="114" width="200" height="26" as="geometry" />
        </mxCell>
        <mxCell id="PUjruNRS7oLcWsMUaFnQ-174" value="- __init__(control_filial)" style="text;align=left;verticalAlign=top;spacingLeft=4;spacingRight=4;overflow=hidden;rotatable=0;points=[[0,0.5],[1,0.5]];portConstraint=eastwest;labelBackgroundColor=none;fillColor=none;strokeColor=none;swimlaneLine=1;shadow=0;" parent="PUjruNRS7oLcWsMUaFnQ-168" vertex="1">
          <mxGeometry y="140" width="200" height="26" as="geometry" />
        </mxCell>
        <mxCell id="PUjruNRS7oLcWsMUaFnQ-175" value="- listar_contratos()" style="text;align=left;verticalAlign=top;spacingLeft=4;spacingRight=4;overflow=hidden;rotatable=0;points=[[0,0.5],[1,0.5]];portConstraint=eastwest;labelBackgroundColor=none;fillColor=none;strokeColor=none;swimlaneLine=1;shadow=0;" parent="PUjruNRS7oLcWsMUaFnQ-168" vertex="1">
          <mxGeometry y="166" width="200" height="26" as="geometry" />
        </mxCell>
        <mxCell id="PUjruNRS7oLcWsMUaFnQ-176" value="- modificar_dados()" style="text;align=left;verticalAlign=top;spacingLeft=4;spacingRight=4;overflow=hidden;rotatable=0;points=[[0,0.5],[1,0.5]];portConstraint=eastwest;labelBackgroundColor=none;fillColor=none;strokeColor=none;swimlaneLine=1;shadow=0;" parent="PUjruNRS7oLcWsMUaFnQ-168" vertex="1">
          <mxGeometry y="192" width="200" height="26" as="geometry" />
        </mxCell>
        <mxCell id="PUjruNRS7oLcWsMUaFnQ-177" value="- acessar_contrato()" style="text;align=left;verticalAlign=top;spacingLeft=4;spacingRight=4;overflow=hidden;rotatable=0;points=[[0,0.5],[1,0.5]];portConstraint=eastwest;labelBackgroundColor=none;fillColor=none;strokeColor=none;swimlaneLine=1;shadow=0;" parent="PUjruNRS7oLcWsMUaFnQ-168" vertex="1">
          <mxGeometry y="218" width="200" height="26" as="geometry" />
        </mxCell>
        <mxCell id="PUjruNRS7oLcWsMUaFnQ-178" value="- retornar()" style="text;align=left;verticalAlign=top;spacingLeft=4;spacingRight=4;overflow=hidden;rotatable=0;points=[[0,0.5],[1,0.5]];portConstraint=eastwest;labelBackgroundColor=none;fillColor=none;strokeColor=none;swimlaneLine=1;shadow=0;" parent="PUjruNRS7oLcWsMUaFnQ-168" vertex="1">
          <mxGeometry y="244" width="200" height="26" as="geometry" />
        </mxCell>
        <mxCell id="PUjruNRS7oLcWsMUaFnQ-179" style="edgeStyle=orthogonalEdgeStyle;rounded=0;orthogonalLoop=1;jettySize=auto;html=1;fillColor=#e1d5e7;strokeColor=#9673a6;endArrow=open;endFill=0;endSize=11;" parent="WIyWlLk6GJQsqaUBKTNV-1" source="PUjruNRS7oLcWsMUaFnQ-180" edge="1">
          <mxGeometry relative="1" as="geometry">
            <mxPoint x="1730" y="590" as="targetPoint" />
            <Array as="points">
              <mxPoint x="1230" y="590" />
            </Array>
          </mxGeometry>
        </mxCell>
        <mxCell id="PUjruNRS7oLcWsMUaFnQ-180" value="ControladorFunComumEsp" style="swimlane;fontStyle=0;align=center;verticalAlign=top;childLayout=stackLayout;horizontal=1;startSize=26;horizontalStack=0;resizeParent=1;resizeLast=0;collapsible=1;marginBottom=0;rounded=1;shadow=0;strokeWidth=1;fillColor=#E5CCFF;strokeColor=#9673a6;labelBackgroundColor=none;fillStyle=auto;gradientDirection=west;swimlaneFillColor=#FFFFFF;swimlaneLine=1;gradientColor=#CC99FF;" parent="WIyWlLk6GJQsqaUBKTNV-1" vertex="1">
          <mxGeometry x="1150" y="172" width="180" height="348" as="geometry">
            <mxRectangle x="340" y="380" width="170" height="26" as="alternateBounds" />
          </mxGeometry>
        </mxCell>
        <mxCell id="PUjruNRS7oLcWsMUaFnQ-181" value="- func_comuns: []" style="text;align=left;verticalAlign=top;spacingLeft=4;spacingRight=4;overflow=hidden;rotatable=0;points=[[0,0.5],[1,0.5]];portConstraint=eastwest;labelBackgroundColor=none;fillColor=none;strokeColor=none;swimlaneLine=1;shadow=0;" parent="PUjruNRS7oLcWsMUaFnQ-180" vertex="1">
          <mxGeometry y="26" width="180" height="26" as="geometry" />
        </mxCell>
        <mxCell id="PUjruNRS7oLcWsMUaFnQ-182" value="&lt;span style=&quot;color: rgb(0, 0, 0); font-family: Helvetica; font-size: 12px; font-style: normal; font-variant-ligatures: normal; font-variant-caps: normal; font-weight: 400; letter-spacing: normal; orphans: 2; text-align: left; text-indent: 0px; text-transform: none; widows: 2; word-spacing: 0px; -webkit-text-stroke-width: 0px; background-color: rgb(251, 251, 251); text-decoration-thickness: initial; text-decoration-style: initial; text-decoration-color: initial; float: none; display: inline !important;&quot;&gt;- tela_func: TelaFunComum&lt;/span&gt;" style="text;whiteSpace=wrap;html=1;verticalAlign=top;fillColor=none;strokeColor=none;strokeWidth=1;labelBackgroundColor=none;spacingTop=-1;spacingLeft=4;spacingRight=4;dashed=1;swimlaneLine=1;shadow=0;" parent="PUjruNRS7oLcWsMUaFnQ-180" vertex="1">
          <mxGeometry y="52" width="180" height="28" as="geometry" />
        </mxCell>
        <mxCell id="PUjruNRS7oLcWsMUaFnQ-183" value="- control_filial: ControladorFilial" style="text;align=left;verticalAlign=top;spacingLeft=4;spacingRight=4;overflow=hidden;rotatable=0;points=[[0,0.5],[1,0.5]];portConstraint=eastwest;labelBackgroundColor=none;fillColor=none;strokeColor=none;gradientColor=none;swimlaneLine=1;shadow=0;" parent="PUjruNRS7oLcWsMUaFnQ-180" vertex="1">
          <mxGeometry y="80" width="180" height="26" as="geometry" />
        </mxCell>
        <mxCell id="PUjruNRS7oLcWsMUaFnQ-184" value="" style="line;strokeWidth=1;fillColor=#e1d5e7;align=left;verticalAlign=middle;spacingTop=-1;spacingLeft=3;spacingRight=3;rotatable=0;labelPosition=right;points=[];portConstraint=eastwest;strokeColor=#9673a6;fontSize=16;" parent="PUjruNRS7oLcWsMUaFnQ-180" vertex="1">
          <mxGeometry y="106" width="180" height="8" as="geometry" />
        </mxCell>
        <mxCell id="PUjruNRS7oLcWsMUaFnQ-185" value="- __init__(control_filial)" style="text;align=left;verticalAlign=top;spacingLeft=4;spacingRight=4;overflow=hidden;rotatable=0;points=[[0,0.5],[1,0.5]];portConstraint=eastwest;labelBackgroundColor=none;fillColor=none;strokeColor=none;swimlaneLine=1;shadow=0;" parent="PUjruNRS7oLcWsMUaFnQ-180" vertex="1">
          <mxGeometry y="114" width="180" height="26" as="geometry" />
        </mxCell>
        <mxCell id="PUjruNRS7oLcWsMUaFnQ-186" value="- modificar_dados()" style="text;align=left;verticalAlign=top;spacingLeft=4;spacingRight=4;overflow=hidden;rotatable=0;points=[[0,0.5],[1,0.5]];portConstraint=eastwest;labelBackgroundColor=none;fillColor=none;strokeColor=none;swimlaneLine=1;shadow=0;" parent="PUjruNRS7oLcWsMUaFnQ-180" vertex="1">
          <mxGeometry y="140" width="180" height="26" as="geometry" />
        </mxCell>
        <mxCell id="PUjruNRS7oLcWsMUaFnQ-187" value="- add_fun_comum()" style="text;align=left;verticalAlign=top;spacingLeft=4;spacingRight=4;overflow=hidden;rotatable=0;points=[[0,0.5],[1,0.5]];portConstraint=eastwest;labelBackgroundColor=none;fillColor=none;strokeColor=none;swimlaneLine=1;shadow=0;" parent="PUjruNRS7oLcWsMUaFnQ-180" vertex="1">
          <mxGeometry y="166" width="180" height="26" as="geometry" />
        </mxCell>
        <mxCell id="PUjruNRS7oLcWsMUaFnQ-188" value="- rem_fun_comum()" style="text;align=left;verticalAlign=top;spacingLeft=4;spacingRight=4;overflow=hidden;rotatable=0;points=[[0,0.5],[1,0.5]];portConstraint=eastwest;labelBackgroundColor=none;fillColor=none;strokeColor=none;swimlaneLine=1;shadow=0;" parent="PUjruNRS7oLcWsMUaFnQ-180" vertex="1">
          <mxGeometry y="192" width="180" height="26" as="geometry" />
        </mxCell>
        <mxCell id="PUjruNRS7oLcWsMUaFnQ-189" value="- acessar_contrato()" style="text;align=left;verticalAlign=top;spacingLeft=4;spacingRight=4;overflow=hidden;rotatable=0;points=[[0,0.5],[1,0.5]];portConstraint=eastwest;labelBackgroundColor=none;fillColor=none;strokeColor=none;swimlaneLine=1;shadow=0;" parent="PUjruNRS7oLcWsMUaFnQ-180" vertex="1">
          <mxGeometry y="218" width="180" height="26" as="geometry" />
        </mxCell>
        <mxCell id="PUjruNRS7oLcWsMUaFnQ-190" value="- listar_todos()" style="text;align=left;verticalAlign=top;spacingLeft=4;spacingRight=4;overflow=hidden;rotatable=0;points=[[0,0.5],[1,0.5]];portConstraint=eastwest;labelBackgroundColor=none;fillColor=none;strokeColor=none;swimlaneLine=1;shadow=0;" parent="PUjruNRS7oLcWsMUaFnQ-180" vertex="1">
          <mxGeometry y="244" width="180" height="26" as="geometry" />
        </mxCell>
        <mxCell id="PUjruNRS7oLcWsMUaFnQ-191" value="- busca_fun_por_cpf(msg)" style="text;align=left;verticalAlign=top;spacingLeft=4;spacingRight=4;overflow=hidden;rotatable=0;points=[[0,0.5],[1,0.5]];portConstraint=eastwest;labelBackgroundColor=none;fillColor=none;strokeColor=none;swimlaneLine=1;shadow=0;" parent="PUjruNRS7oLcWsMUaFnQ-180" vertex="1">
          <mxGeometry y="270" width="180" height="26" as="geometry" />
        </mxCell>
        <mxCell id="PUjruNRS7oLcWsMUaFnQ-192" value="- checagem_repeticao()" style="text;align=left;verticalAlign=top;spacingLeft=4;spacingRight=4;overflow=hidden;rotatable=0;points=[[0,0.5],[1,0.5]];portConstraint=eastwest;labelBackgroundColor=none;fillColor=none;strokeColor=none;swimlaneLine=1;shadow=0;" parent="PUjruNRS7oLcWsMUaFnQ-180" vertex="1">
          <mxGeometry y="296" width="180" height="26" as="geometry" />
        </mxCell>
        <mxCell id="PUjruNRS7oLcWsMUaFnQ-193" value="- retornar()" style="text;align=left;verticalAlign=top;spacingLeft=4;spacingRight=4;overflow=hidden;rotatable=0;points=[[0,0.5],[1,0.5]];portConstraint=eastwest;labelBackgroundColor=none;fillColor=none;strokeColor=none;swimlaneLine=1;shadow=0;" parent="PUjruNRS7oLcWsMUaFnQ-180" vertex="1">
          <mxGeometry y="322" width="180" height="26" as="geometry" />
        </mxCell>
        <mxCell id="PUjruNRS7oLcWsMUaFnQ-194" style="edgeStyle=orthogonalEdgeStyle;rounded=0;orthogonalLoop=1;jettySize=auto;html=1;fillColor=#e1d5e7;strokeColor=#9673a6;endSize=10;endArrow=open;endFill=0;exitX=0.472;exitY=1.115;exitDx=0;exitDy=0;exitPerimeter=0;" parent="WIyWlLk6GJQsqaUBKTNV-1" source="PUjruNRS7oLcWsMUaFnQ-87" target="PUjruNRS7oLcWsMUaFnQ-22" edge="1">
          <mxGeometry relative="1" as="geometry">
            <mxPoint x="1330" y="590" as="targetPoint" />
            <Array as="points">
              <mxPoint x="1587" y="540" />
              <mxPoint x="1587" y="540" />
            </Array>
          </mxGeometry>
        </mxCell>
      </root>
    </mxGraphModel>
  </diagram>
</mxfile>
